<?xml version="1.0" encoding="UTF-8"?>
<svg xmlns="http://www.w3.org/2000/svg" xmlns:xlink="http://www.w3.org/1999/xlink" width="464px" height="512px" viewBox="0 0 464 512" version="1.1">
<g id="surface1">
<path style=" stroke:none;fill-rule:nonzero;fill:rgb(0%,0%,0%);fill-opacity:1;" d="M 204 29.558594 L 204 59.160156 L 200.71875 61.078125 L 197.398438 63.039062 L 197.28125 68 L 197.160156 72.960938 L 199.878906 75.679688 L 202.558594 78.398438 L 212.640625 78.398438 L 215.320312 81.121094 L 218 83.839844 L 218 99.800781 L 214.519531 103.28125 C 211.121094 106.71875 211.039062 106.800781 211.039062 108.761719 C 211 110.480469 210.800781 111 209.761719 112.039062 C 206.480469 115.28125 201.601562 113.121094 201.601562 108.359375 C 201.601562 107.039062 201.839844 106.480469 202.960938 105.359375 C 204.078125 104.238281 204.601562 104 206.078125 104 C 207.039062 104 208.199219 104.238281 208.640625 104.558594 C 209.398438 105.078125 209.640625 104.921875 212.519531 102.121094 L 215.601562 99.078125 L 215.601562 84.558594 L 213.480469 82.480469 L 211.359375 80.398438 L 201.398438 80.398438 L 194.761719 73.761719 L 194.878906 67.800781 L 195 61.839844 L 198.320312 59.878906 L 201.601562 57.921875 L 201.601562 0.398438 L 199.320312 0.398438 C 198.039062 0.398438 196.601562 0.519531 196.121094 0.640625 L 195.199219 0.878906 L 195.199219 53.839844 L 190.800781 58.160156 L 190.800781 75 L 196.71875 80.921875 L 202.679688 86.878906 L 204.039062 86.039062 C 206.121094 84.761719 208.121094 84.921875 209.800781 86.480469 C 214.039062 90.398438 209.519531 96.839844 204.398438 94.199219 C 202.878906 93.398438 202 92.121094 202 90.601562 C 202 89.558594 201.039062 88.441406 195.398438 82.800781 L 188.800781 76.199219 L 188.800781 56.960938 L 192.800781 53.039062 L 192.800781 26.921875 C 192.800781 1.441406 192.800781 0.800781 192.039062 0.800781 C 189.878906 0.800781 190 -0.601562 190 23.960938 L 190 46.640625 L 188.398438 48.199219 L 186.800781 49.761719 L 186.800781 76.601562 L 196.800781 86.601562 L 196.800781 119.519531 L 200.320312 121.558594 C 203.441406 123.359375 204 123.519531 205.121094 123.238281 C 208.480469 122.238281 211.878906 125.601562 211.039062 129 C 210.320312 131.839844 206.878906 133.441406 204.238281 132.199219 C 202.238281 131.238281 201.441406 129.601562 201.71875 127.039062 L 201.921875 125 L 198.359375 123 L 194.800781 121 L 194.800781 87.800781 L 184.398438 77.398438 L 184.398438 48.960938 L 186.199219 47.199219 L 188 45.441406 L 188 1.160156 L 185.71875 1.398438 C 184.441406 1.519531 183 1.71875 182.519531 1.839844 L 181.601562 2 L 181.601562 39.121094 C 181.601562 59.519531 181.480469 76.601562 181.359375 77.078125 C 181.039062 78.238281 183.878906 81.238281 187.800781 83.921875 C 192.679688 87.28125 193.679688 90.199219 191.039062 93.121094 C 189.800781 94.480469 189.480469 94.601562 187.601562 94.601562 C 185.71875 94.601562 185.398438 94.480469 184.160156 93.121094 C 183.160156 92 182.800781 91.238281 182.800781 90.199219 C 182.800781 88.480469 183.640625 86.679688 184.878906 85.800781 C 185.800781 85.160156 185.800781 85.160156 185 84.71875 C 184.558594 84.480469 183.039062 83.160156 181.679688 81.71875 L 179.121094 79.160156 L 179.398438 67.28125 C 179.558594 60.761719 179.558594 43.398438 179.398438 28.761719 C 179.121094 4.441406 179.039062 2.121094 178.441406 2.238281 C 178.078125 2.320312 176.960938 2.480469 175.921875 2.601562 L 174 2.839844 L 174 39.320312 L 178 46.28125 L 178 93.441406 L 183.558594 98.800781 C 186.601562 101.761719 189.71875 104.679688 190.441406 105.28125 C 191.679688 106.238281 191.800781 106.519531 191.800781 108.519531 C 191.800781 110.320312 191.601562 110.921875 190.839844 111.761719 C 187.71875 115.078125 182.398438 113.039062 182.398438 108.519531 C 182.398438 107 182.601562 106.519531 183.839844 105.28125 L 185.238281 103.878906 L 180.441406 99.039062 L 175.601562 94.199219 L 175.601562 46.640625 L 171.601562 39.601562 L 171.601562 3.160156 L 169.71875 3.398438 C 168.640625 3.558594 167.160156 3.800781 166.398438 3.960938 L 165 4.238281 L 164.878906 24.679688 L 164.800781 45.121094 L 166.441406 44.921875 C 169.320312 44.519531 172 46.761719 172 49.601562 C 172 51.039062 170.878906 53 169.640625 53.71875 C 167.519531 54.960938 164.199219 54.28125 163.160156 52.320312 C 162.800781 51.679688 162.71875 45.199219 162.761719 28.121094 C 162.839844 5.121094 162.839844 4.800781 162.039062 4.800781 C 160.640625 4.800781 146.039062 7.839844 143.640625 8.640625 C 143.238281 8.761719 143.601562 9.398438 144.921875 10.71875 L 146.800781 12.640625 L 146.800781 41 L 160.601562 54.800781 L 174.398438 68.601562 L 174.398438 96.199219 L 178 102.199219 L 178 116.480469 L 181.199219 119.800781 L 184.441406 123.078125 L 186.839844 123.039062 C 189.160156 123 189.320312 123.078125 190.640625 124.480469 C 192.320312 126.320312 192.480469 128.359375 191.078125 130.441406 C 188.679688 134.039062 183.078125 132.761719 182.519531 128.480469 C 182.320312 127.121094 181.71875 126.320312 177.960938 122.558594 L 173.601562 118.199219 L 173.601562 103.601562 L 171.601562 100.078125 L 169.601562 96.558594 L 169.601562 69.800781 L 156 56.199219 L 142.398438 42.601562 L 142.398438 14.640625 L 140.160156 12.359375 L 137.921875 10.121094 L 135.078125 10.921875 C 133.480469 11.359375 132.121094 11.800781 132.039062 11.878906 C 131.921875 11.960938 133.238281 13.398438 134.921875 15.121094 L 138 18.199219 L 138 45.359375 L 151.800781 59.199219 L 165.601562 73 L 165.601562 100.160156 L 169 103.640625 C 172.238281 106.960938 172.398438 107.160156 172.398438 108.921875 C 172.398438 112.199219 169.441406 114.558594 166.441406 113.679688 C 163.320312 112.71875 161.921875 109.398438 163.519531 106.679688 L 164.320312 105.28125 L 162.761719 103.761719 L 161.199219 102.238281 L 161.199219 74.601562 L 147.398438 60.800781 L 133.601562 47 L 133.601562 20.199219 L 130.238281 16.839844 L 126.878906 13.519531 L 123.039062 14.800781 C 120.921875 15.480469 119.078125 16.238281 118.960938 16.480469 C 118.800781 16.71875 121.679688 19.878906 125.359375 23.558594 L 132 30.199219 L 132 48.601562 L 144.398438 61 L 144.398438 66 L 145.71875 66 C 147.480469 66 148.800781 66.761719 149.878906 68.359375 C 152.078125 71.640625 149.71875 75.601562 145.601562 75.601562 C 144.199219 75.601562 143.679688 75.359375 142.519531 74.199219 C 141.199219 72.878906 141.121094 72.71875 141.398438 70.71875 C 141.519531 69.558594 141.71875 67.078125 141.839844 65.199219 L 142.039062 61.800781 L 135.800781 55.601562 L 129.601562 49.398438 L 129.601562 30.800781 L 122.839844 24.039062 L 116.121094 17.238281 L 114.839844 17.71875 C 114.160156 17.960938 113.601562 18.28125 113.601562 18.398438 C 113.601562 18.519531 116.761719 21.761719 120.601562 25.601562 L 127.601562 32.601562 L 127.601562 49.398438 L 139.601562 61.398438 L 139.601562 76.199219 L 141.960938 77.480469 C 144.199219 78.71875 144.601562 78.800781 148.28125 78.800781 L 152.199219 78.800781 L 159.199219 85.800781 L 159.199219 132.558594 L 163.761719 137.199219 L 235 137.199219 L 238.078125 134.078125 L 241.160156 131 L 240.71875 129.398438 C 240.359375 128.039062 240.398438 127.519531 241 126.28125 C 242.800781 122.480469 248.199219 122.71875 249.839844 126.679688 C 251.359375 130.238281 247.558594 134.238281 244 132.878906 C 243.078125 132.519531 242.679688 132.800781 239.359375 136.039062 L 235.71875 139.601562 L 162.960938 139.601562 L 160.078125 136.679688 L 157.199219 133.800781 L 157.199219 86.960938 L 154.28125 84.078125 L 151.398438 81.199219 L 147.601562 81.199219 L 143.800781 81.160156 L 140.601562 79.28125 L 137.398438 77.359375 L 137.28125 69.761719 L 137.199219 62.160156 L 131.398438 56.398438 L 125.601562 50.601562 L 125.601562 33.398438 L 118.480469 26.28125 C 113.160156 20.960938 111.199219 19.238281 110.679688 19.441406 C 110.320312 19.558594 110 19.71875 110 19.800781 C 110 19.839844 112.878906 22.761719 116.398438 26.28125 L 122.800781 32.679688 L 122.800781 52.601562 L 134.359375 64.160156 L 134.359375 69.761719 L 134.320312 75.398438 L 139.960938 80.839844 L 145.558594 86.238281 L 147.960938 86.078125 C 150.28125 85.921875 150.441406 85.960938 151.800781 87.320312 C 152.960938 88.480469 153.199219 89 153.199219 90.359375 C 153.199219 92.640625 152.320312 94.160156 150.558594 95 C 148.679688 95.878906 146.640625 95.519531 145.160156 94.039062 C 143.800781 92.640625 143.359375 91.121094 143.878906 89.398438 L 144.320312 88.078125 L 132 76.320312 L 132 64.601562 L 120.398438 53 L 120.398438 33.398438 L 114.078125 27.078125 C 107.878906 20.878906 107.71875 20.761719 106.601562 21.199219 L 105.441406 21.640625 L 119.199219 35.398438 L 119.199219 54.601562 L 125 60.398438 L 130.800781 66.199219 L 130.800781 77.800781 L 140.398438 87.398438 L 140.398438 118.558594 L 143.039062 121.238281 L 145.679688 123.878906 L 147.121094 123.398438 C 148.960938 122.761719 150.679688 123.238281 152.121094 124.800781 C 154.121094 127 153.359375 130.878906 150.640625 132.160156 C 148.960938 132.960938 148.359375 132.960938 146.601562 132.238281 C 144.601562 131.398438 143.519531 129.441406 143.800781 127.199219 L 144 125.398438 L 141 122.398438 L 138 119.441406 L 138 88.238281 L 133.199219 83.398438 L 128.398438 78.519531 L 128.398438 66.601562 L 122.601562 60.800781 L 116.800781 55 L 116.800781 36.199219 L 110.078125 29.480469 L 103.359375 22.761719 L 101.238281 23.640625 L 99.160156 24.519531 L 105.558594 30.960938 L 112 37.398438 L 112 58.199219 L 124 70.199219 L 124 79.679688 C 124 84.921875 124.160156 89.199219 124.320312 89.199219 C 124.480469 89.199219 124.960938 88.640625 125.359375 87.960938 C 126.878906 85.398438 130.640625 85 132.839844 87.160156 C 135.921875 90.28125 133.761719 95.199219 129.28125 95.199219 C 127.480469 95.199219 125.921875 94.160156 125 92.359375 C 124.519531 91.480469 124.078125 91.199219 123.199219 91.199219 L 122 91.199219 L 122 71.398438 L 109.601562 59 L 109.601562 38.199219 L 103.441406 32.039062 C 97.761719 26.359375 97.199219 25.921875 96.160156 26.160156 C 95.121094 26.441406 95.28125 26.640625 101.921875 33.359375 L 108.800781 40.238281 L 108.800781 65.519531 L 110.121094 65.761719 C 113.359375 66.359375 115 70.441406 113.121094 73.199219 C 110.480469 77.078125 104.398438 75.359375 104.398438 70.71875 C 104.398438 69.199219 105.441406 66.800781 106.078125 66.800781 C 106.238281 66.800781 106.398438 61 106.398438 53.878906 L 106.398438 41 L 99.878906 34.480469 C 96.320312 30.921875 93.121094 28 92.800781 28 C 92.480469 28 91.800781 28.320312 91.28125 28.71875 L 90.398438 29.398438 L 100 39 L 100 72.640625 L 102.71875 75.320312 L 105.441406 78 L 121.199219 78 L 121.199219 98.601562 L 124.039062 101.441406 L 126.839844 104.28125 L 128.359375 103.878906 C 131.558594 103 134.839844 106.160156 134.199219 109.480469 C 133.359375 114.078125 127.199219 114.878906 125.039062 110.640625 C 124.359375 109.320312 124.320312 108.839844 124.71875 107.441406 L 125.160156 105.800781 L 122.199219 102.800781 L 119.199219 99.800781 L 119.121094 90 L 119 80.199219 L 111.601562 80.078125 L 104.199219 80 L 100.921875 76.679688 L 97.601562 73.398438 L 97.601562 39.398438 L 93 34.800781 C 88.519531 30.359375 88.398438 30.238281 87.398438 30.800781 L 86.359375 31.359375 L 95.601562 40.601562 L 95.601562 74.601562 L 102.800781 81.519531 L 110 88.480469 L 110 122.800781 L 111.359375 123.359375 C 113.878906 124.398438 114.960938 127.28125 113.800781 129.71875 C 111.601562 134.398438 104.640625 132.800781 104.71875 127.640625 C 104.761719 125.800781 105.558594 124.359375 107 123.601562 L 108 123.078125 L 108 89.800781 L 100.601562 82.398438 L 93.199219 75 L 93.199219 41.398438 L 84.441406 32.640625 L 83 33.398438 C 82.238281 33.839844 81.601562 34.28125 81.601562 34.398438 C 81.601562 34.519531 83.398438 36.398438 85.601562 38.601562 L 89.601562 42.601562 L 89.601562 77 L 94 81.398438 L 98.398438 85.800781 L 98.398438 133.519531 L 102 135.558594 L 105.601562 137.601562 L 119.398438 137.601562 L 125.71875 131.28125 L 125.078125 129.878906 C 124.238281 128.160156 124.238281 127.558594 124.960938 125.800781 C 125.640625 124.199219 127.679688 122.800781 129.398438 122.800781 C 131.121094 122.800781 133.160156 124.199219 133.839844 125.800781 C 134.558594 127.558594 134.558594 128.160156 133.761719 129.839844 C 132.960938 131.480469 131.238281 132.480469 129.238281 132.480469 C 127.960938 132.441406 127.398438 132.839844 124.160156 136.039062 L 120.519531 139.679688 L 112.519531 139.601562 L 104.480469 139.558594 L 100.441406 137.28125 L 96.441406 135 L 96.398438 111 L 96.398438 87 L 92 82.601562 L 87.601562 78.199219 L 87.601562 43.800781 L 83.441406 39.640625 C 80.679688 36.878906 79.199219 35.679688 79 36 C 78.800781 36.320312 80.039062 37.800781 82.359375 40.160156 L 86 43.800781 L 86 78.601562 L 89.601562 82.199219 C 91.601562 84.160156 93.199219 86 93.199219 86.28125 C 93.199219 86.558594 93.558594 87.359375 94 88.078125 C 96 91.359375 93.71875 95.601562 90 95.601562 C 87.519531 95.601562 85.199219 93.28125 85.199219 90.800781 C 85.199219 88.441406 87.199219 86 89.199219 86 C 89.640625 86 90 85.921875 90 85.839844 C 90 85.71875 88.640625 84.320312 87 82.71875 L 84 79.800781 L 84 44.601562 L 80.398438 41 C 76.480469 37.121094 76.679688 37.160156 74 39.199219 L 73 39.960938 L 76.71875 43.679688 L 80.398438 47.398438 L 80.398438 99 L 83.519531 102.121094 L 86.640625 105.238281 L 88.199219 104.558594 C 91.320312 103.28125 94.359375 105.238281 94.71875 108.761719 C 94.878906 110.640625 94.800781 110.878906 93.519531 112.160156 C 91.121094 114.558594 88.878906 114.558594 86.519531 112.199219 C 85.28125 110.960938 85.160156 110.601562 85.238281 109 C 85.359375 107.199219 85.320312 107.160156 81.679688 103.480469 L 78 99.800781 L 78 48.199219 L 74.601562 44.800781 C 71.359375 41.558594 71.199219 41.480469 70.160156 41.960938 L 69.078125 42.441406 L 70.519531 43.921875 L 72 45.441406 L 72 65.761719 L 73.238281 67.039062 C 76.601562 70.519531 74.078125 75.640625 69.238281 75.078125 C 66.761719 74.800781 65.199219 73.078125 65.199219 70.679688 C 65.238281 69.761719 65.441406 68.601562 65.761719 68.078125 C 66.359375 66.960938 68.320312 65.601562 69.320312 65.601562 C 69.960938 65.601562 70 64.878906 70 56.078125 L 70 46.558594 L 68.679688 45.28125 L 67.320312 43.960938 L 64.480469 46.199219 L 61.601562 48.441406 L 61.601562 74.601562 L 67.640625 80.601562 C 70.960938 83.921875 73.921875 87.078125 74.238281 87.679688 C 75.960938 90.921875 73.640625 94.800781 70 94.800781 C 65.078125 94.800781 63.320312 88 67.679688 85.761719 L 68.921875 85.121094 L 59.601562 75.800781 L 59.519531 63.078125 L 59.398438 50.320312 L 55.921875 53.398438 L 52.398438 56.480469 L 52.398438 61.238281 C 52.398438 65.640625 52.441406 65.960938 53.238281 66.199219 C 54.359375 66.558594 55.601562 68.71875 55.601562 70.320312 C 55.601562 75.28125 49.160156 77.039062 46.640625 72.800781 C 45.28125 70.441406 46.320312 67.039062 48.761719 66 L 50 65.519531 L 50 62.238281 L 49.960938 59 L 46.199219 62.878906 L 42.398438 66.761719 L 42.398438 76.238281 L 45.039062 78.800781 L 57.441406 78.800781 L 59.519531 82.359375 L 61.601562 85.960938 L 61.601562 98.601562 L 64.640625 101.640625 C 67.601562 104.640625 67.71875 104.679688 69.359375 104.519531 C 72.519531 104.160156 74.800781 106.199219 74.800781 109.441406 C 74.800781 111.519531 72.320312 114 70.238281 114 C 67.199219 114 65.199219 112 65.199219 108.878906 C 65.199219 108.039062 65.398438 107.160156 65.679688 106.878906 C 66.078125 106.480469 65.441406 105.640625 62.679688 102.878906 L 59.199219 99.398438 L 59.199219 86.238281 L 57.601562 83.519531 L 55.960938 80.800781 L 43.761719 80.800781 L 41.878906 78.878906 L 40 76.960938 L 40 73.441406 C 40 69.921875 40 69.878906 39.199219 70.601562 C 38.480469 71.28125 38.398438 71.839844 38.398438 77.558594 L 38.398438 83.839844 L 40.921875 86.320312 C 42.921875 88.320312 43.679688 88.800781 44.71875 88.800781 C 45.71875 88.800781 46.121094 88.558594 46.558594 87.640625 C 47.441406 86 48.878906 85.199219 51.039062 85.199219 C 52.601562 85.199219 53.078125 85.398438 54.238281 86.558594 C 55.359375 87.679688 55.601562 88.238281 55.601562 89.601562 C 55.601562 91.71875 54.601562 93.398438 52.878906 94.238281 C 51.078125 95.078125 49 94.761719 47.601562 93.398438 C 46.761719 92.601562 46.160156 92.398438 44.359375 92.398438 L 42.199219 92.398438 L 35.199219 85.398438 L 35.199219 80.601562 L 35.160156 75.800781 L 34 77.199219 L 32.800781 78.558594 L 32.800781 89.800781 L 40.359375 97.359375 L 47.921875 104.878906 L 49.359375 104.398438 C 53.761719 102.960938 57.558594 108.398438 54.601562 111.921875 C 51.71875 115.359375 46.640625 113.960938 46.121094 109.519531 C 45.921875 107.921875 45.441406 107.320312 37.761719 99.601562 L 29.640625 91.398438 L 29.398438 83.398438 L 26.679688 87.601562 L 24 91.800781 L 24 98.640625 L 26.800781 101.398438 C 29.28125 103.878906 29.761719 104.160156 31.28125 104.238281 C 34.761719 104.441406 36.761719 108.519531 34.921875 111.640625 C 34.238281 112.800781 32.238281 114 31.039062 114 C 27.71875 114 24.960938 109.878906 26.441406 107.121094 C 26.800781 106.441406 26.480469 105.921875 23.601562 102.960938 C 21.199219 100.519531 20.359375 99.398438 20.558594 98.921875 C 20.761719 98.320312 20.679688 98.359375 20.160156 99 C 19.480469 99.839844 14.800781 109.359375 14.800781 109.921875 C 14.800781 110.078125 16.921875 112.320312 19.519531 114.921875 L 24.238281 119.640625 L 32.238281 119.441406 C 36.601562 119.320312 41.160156 119.160156 42.320312 119.121094 C 44.28125 119 44.558594 119.121094 45.640625 120.320312 C 46.601562 121.398438 46.800781 121.960938 46.800781 123.640625 C 46.800781 125.320312 46.601562 125.839844 45.640625 126.800781 C 45 127.441406 44.039062 128.078125 43.441406 128.238281 C 41.921875 128.601562 39.839844 128.121094 39 127.199219 C 38.320312 126.441406 37.761719 126.398438 29.800781 126.398438 L 21.359375 126.398438 L 16.601562 121.601562 C 14 118.960938 11.839844 116.839844 11.800781 116.878906 C 11.039062 118 5.601562 135.519531 5.601562 136.878906 C 5.601562 137.558594 6.078125 137.601562 13.71875 137.601562 L 21.800781 137.601562 L 28.519531 144.320312 L 30.078125 143.519531 C 32.039062 142.480469 33.921875 142.800781 35.558594 144.398438 C 39.398438 148.238281 35.160156 154.519531 30.28125 152.199219 C 28.480469 151.359375 27.519531 149.878906 27.441406 147.921875 C 27.398438 146.519531 27.078125 146.039062 23.960938 142.960938 L 20.480469 139.601562 L 12.761719 139.679688 L 5 139.800781 L 4.558594 141.199219 C 4.121094 142.519531 2.359375 152.160156 1.800781 156 L 1.558594 157.800781 L 5.160156 154.238281 L 8.71875 150.71875 L 8.519531 148.398438 C 8.359375 146.640625 8.480469 145.878906 9 145.039062 C 10.519531 142.761719 13.359375 142.160156 15.640625 143.71875 C 20.160156 146.761719 17.839844 152.839844 12.359375 152.320312 L 10.480469 152.121094 L 1.160156 161.441406 L 0.761719 165.558594 C 0.519531 167.839844 0.441406 169.800781 0.601562 169.921875 C 0.761719 170.078125 3.160156 167.800781 5.960938 164.878906 L 11.039062 159.601562 L 19.199219 159.601562 L 19.199219 181.359375 L 17.800781 182.800781 C 16.519531 184.121094 16.398438 184.398438 16.800781 185.359375 C 17.398438 187 17.28125 188.480469 16.441406 189.761719 C 15.398438 191.359375 14.160156 191.960938 12.039062 192 C 10.601562 192 10.078125 191.761719 8.960938 190.640625 C 7.800781 189.480469 7.601562 189 7.601562 187.441406 C 7.601562 184.078125 9.839844 182.121094 13.121094 182.558594 C 14.679688 182.761719 15 182.679688 16.039062 181.640625 L 17.199219 180.480469 L 17.199219 162 L 11.878906 162 L 6.199219 167.480469 C 1.800781 171.761719 0.441406 173.320312 0.199219 174.398438 C -0.199219 176.160156 0.238281 197.800781 0.679688 198.601562 C 0.960938 199.078125 1.480469 198.761719 3.199219 197 L 5.359375 194.800781 L 21 194.800781 L 24.519531 191.28125 C 27.121094 188.640625 28 187.519531 28 186.71875 C 28 185.28125 29.761719 183.320312 31.558594 182.761719 C 34.398438 181.921875 37.601562 184.359375 37.601562 187.398438 C 37.601562 189.160156 36.199219 191.160156 34.480469 191.878906 C 33.121094 192.441406 32.839844 192.441406 31.199219 191.878906 L 29.398438 191.238281 L 25.800781 194.800781 L 22.199219 198.398438 L 6.558594 198.398438 L 5.28125 199.71875 L 4 201.039062 L 4 212.679688 C 4 222.800781 4.121094 224.839844 4.800781 228.238281 C 6.039062 234.199219 5.839844 233.921875 7.640625 232.160156 C 9.398438 230.441406 9.558594 229.601562 8.398438 228.121094 C 6.839844 226.160156 7.679688 222.601562 10 221.398438 C 11.519531 220.640625 14 220.640625 15.121094 221.441406 C 16.320312 222.28125 17.199219 224.078125 17.199219 225.761719 C 17.199219 227.398438 15.359375 229.761719 13.800781 230.160156 C 13.199219 230.320312 12.800781 230.71875 12.800781 231.121094 C 12.800781 231.519531 11.480469 233.160156 9.839844 234.761719 C 8.199219 236.398438 6.921875 237.921875 7 238.160156 C 7.078125 238.398438 7.441406 239.640625 7.800781 240.960938 C 8.441406 243.199219 8.480469 243.28125 9.039062 242.441406 C 10.480469 240.398438 13.320312 239.878906 15.519531 241.199219 C 18.398438 242.960938 18.558594 246.761719 15.921875 249 C 14.800781 249.960938 14.359375 250.078125 12.519531 249.921875 C 11.359375 249.800781 10.398438 249.839844 10.398438 249.960938 C 10.398438 250.078125 10.601562 250.878906 10.839844 251.679688 L 11.238281 253.199219 L 17.039062 253.199219 L 18.921875 251.28125 L 20.800781 249.359375 L 20.800781 216.558594 L 15.121094 210.800781 L 13.238281 211.039062 C 9.800781 211.480469 7.601562 209.640625 7.601562 206.320312 C 7.601562 203.558594 9.078125 201.960938 11.878906 201.71875 C 13.761719 201.519531 14.039062 201.601562 15.398438 202.878906 C 16.679688 204.039062 16.921875 204.558594 17.078125 206.28125 C 17.28125 208.199219 17.480469 208.480469 20.640625 211.640625 L 24 215 L 24 251.039062 L 21.28125 253.71875 L 18.558594 256.398438 L 15.480469 256.398438 C 13.800781 256.398438 12.398438 256.558594 12.398438 256.800781 C 12.398438 257.640625 13.359375 259.199219 13.878906 259.199219 C 15 259.199219 16.800781 260.441406 17.398438 261.601562 C 18.238281 263.199219 18.160156 265.160156 17.199219 266.71875 L 16.359375 268.039062 L 17.238281 270.441406 L 18.121094 272.800781 L 23.398438 272.800781 L 26.640625 276.039062 C 29.519531 278.921875 30 279.238281 30.71875 278.839844 C 33.878906 277.160156 38.121094 280.558594 37.398438 284.238281 C 36.800781 287.558594 32.238281 289.160156 29.640625 287 C 28.121094 285.679688 27.398438 283.601562 27.921875 282.039062 C 28.28125 280.960938 28.160156 280.71875 25.441406 278.039062 C 22.800781 275.398438 22.441406 275.199219 20.878906 275.199219 C 19.960938 275.199219 19.199219 275.359375 19.199219 275.558594 C 19.199219 276.398438 25.28125 287.800781 28.320312 292.679688 C 31.121094 297.160156 31.800781 298 33 298.398438 C 35.078125 299.078125 36.398438 300.878906 36.398438 303.039062 C 36.398438 304.519531 36.71875 305.28125 38.078125 307.238281 L 39.761719 309.601562 L 41.480469 307.921875 L 43.199219 306.238281 L 43.199219 298.121094 L 41.71875 297.160156 C 37.640625 294.558594 39.441406 288.398438 44.238281 288.398438 C 45.71875 288.398438 46.28125 288.640625 47.519531 289.761719 C 48.800781 290.960938 49 291.359375 49 292.921875 C 49 294.960938 48 296.679688 46.28125 297.519531 C 45.199219 298.039062 45.199219 298.078125 45.199219 302.519531 L 45.199219 307.039062 L 43.199219 309.160156 C 42.121094 310.320312 41.199219 311.398438 41.199219 311.558594 C 41.238281 311.679688 42.359375 313.398438 43.761719 315.398438 L 46.28125 319 L 79.839844 319.121094 L 113.398438 319.199219 L 120 325.800781 L 120 364.519531 L 121 366.28125 L 122.039062 368 L 275.839844 368 L 278.199219 370.398438 L 280.558594 372.800781 L 315.398438 372.800781 L 326.800781 361.398438 L 326.800781 349 L 333.679688 342.078125 L 340.601562 335.199219 L 373.398438 335.199219 L 377 338.800781 L 380.601562 342.398438 L 395.199219 342.398438 L 400.558594 348 L 411.800781 348 L 415 351.199219 C 417.601562 353.800781 418.320312 354.320312 419.078125 354.160156 C 421.320312 353.558594 424.121094 355.480469 424.839844 358.078125 C 425.199219 359.441406 425.121094 360.039062 424.601562 361.480469 C 422.960938 365.800781 417 365.960938 415.039062 361.800781 C 414.359375 360.359375 414.359375 359.761719 415.039062 356.800781 C 415.238281 355.921875 414.878906 355.398438 412.839844 353.480469 L 410.441406 351.199219 L 399.441406 351.199219 L 396.761719 348.558594 L 394.121094 345.921875 L 386.800781 346 L 379.519531 346.039062 L 375.640625 342.199219 L 371.761719 338.398438 L 341.800781 338.398438 L 330.398438 349.800781 L 330.398438 362.601562 L 316.601562 376.398438 L 279.359375 376.398438 L 274.640625 371.601562 L 120.160156 371.601562 L 116.800781 365.679688 L 116.800781 326.960938 L 114.679688 324.878906 L 112.558594 322.800781 L 48.839844 322.800781 L 51.398438 326.800781 L 53.921875 330.839844 L 79.839844 330.800781 L 105.761719 330.800781 L 108.078125 333.078125 L 110.398438 335.359375 L 110.398438 369 L 121 379.601562 L 273.519531 379.601562 L 276.320312 381.199219 L 279.078125 382.800781 L 319 382.800781 L 327.71875 374.078125 L 336.398438 365.398438 L 336.398438 353.398438 L 342.121094 347.679688 L 347.800781 342 L 373.398438 342 L 376.800781 345.398438 L 380.199219 348.800781 L 392.199219 348.800781 L 395.359375 351.960938 C 398.359375 354.960938 398.558594 355.121094 400 354.921875 C 405 354.238281 407.679688 360.761719 403.839844 364.28125 C 399.960938 367.839844 394.078125 363.921875 395.480469 358.71875 L 395.960938 357 L 393.679688 354.71875 L 391.441406 352.398438 L 379.078125 352.398438 L 375.640625 349 L 372.160156 345.601562 L 349.121094 345.601562 L 344.359375 350.039062 L 339.601562 354.519531 L 339.601562 367 L 330.078125 376.519531 L 320.601562 386 L 277.800781 386 L 275.039062 384.398438 L 272.320312 382.800781 L 119.398438 382.800781 L 113.078125 376.480469 L 106.800781 370.199219 L 106.800781 336.558594 L 105.480469 335.28125 L 104.199219 334.039062 L 80.601562 334 C 67.601562 334 56.800781 334.121094 56.558594 334.320312 C 56.238281 334.519531 56.679688 335.640625 57.878906 337.800781 C 60.238281 341.960938 63.359375 348.800781 65.078125 353.601562 C 65.839844 355.679688 66.519531 357.480469 66.640625 357.558594 C 66.71875 357.640625 67.160156 357.398438 67.640625 356.960938 C 68.28125 356.398438 69.078125 356.199219 71 356.199219 C 73.160156 356.199219 73.679688 356.359375 74.601562 357.199219 C 76.320312 358.800781 76.921875 360.28125 76.679688 362.558594 C 76.519531 364.238281 76.28125 364.761719 74.878906 366.078125 C 73.359375 367.480469 73.039062 367.601562 70.921875 367.601562 L 68.601562 367.601562 L 68.71875 373.199219 L 68.839844 378.800781 L 102.601562 378.800781 L 113.800781 390 L 261 390 L 265.121094 392.398438 L 269.28125 394.800781 L 306.398438 394.800781 L 306.398438 423.601562 L 243.199219 423.601562 L 241.199219 422.359375 L 239.199219 421.160156 L 239.121094 412.679688 L 239 404.199219 L 217.519531 404.078125 L 196 404 L 196 423.601562 L 167.398438 423.601562 L 160.199219 416.398438 L 153 409.199219 L 69.359375 409.199219 L 67.878906 410.71875 C 66.679688 411.960938 66.320312 412.640625 66.121094 414.359375 L 65.878906 416.441406 L 67.28125 415.039062 C 69.039062 413.28125 71 412.878906 73.398438 413.800781 C 78.039062 415.558594 78.480469 421.761719 74.160156 424.320312 C 71.359375 425.960938 68 425.039062 66.28125 422.078125 L 65.398438 420.601562 L 64.921875 424.199219 C 64.640625 426.199219 63.878906 431.800781 63.160156 436.71875 L 61.921875 445.601562 L 63.160156 446.761719 C 65.359375 448.800781 65.800781 451.441406 64.359375 454 C 63.921875 454.800781 63 455.800781 62.359375 456.160156 L 61.199219 456.839844 L 61.199219 476.160156 L 58.558594 478.839844 C 56.039062 481.398438 55.921875 481.601562 55.359375 484.441406 C 55.078125 486.078125 54.71875 487.761719 54.601562 488.238281 C 54.441406 489 55.121094 489.441406 60.480469 491.960938 L 66.519531 494.878906 L 67.480469 493.640625 C 68.761719 492 70.398438 491.199219 72.398438 491.199219 C 74.480469 491.199219 76.078125 492.039062 77.28125 493.679688 C 78 494.761719 78.199219 495.480469 78.160156 497.441406 C 78.078125 499.761719 78.160156 499.878906 79.238281 500.28125 L 80.398438 500.71875 L 80.398438 487.359375 L 77.601562 484.601562 L 74.761719 481.800781 L 72.640625 481.921875 C 70.121094 482.078125 68.480469 481.398438 67.199219 479.601562 C 65.480469 477.199219 65.800781 473.921875 67.921875 471.921875 C 70.921875 469.078125 75.839844 470.078125 77.441406 473.878906 C 78.199219 475.640625 78.160156 476.960938 77.238281 478.761719 L 76.441406 480.28125 L 79.601562 483.398438 L 82.800781 486.558594 L 82.878906 494.121094 L 83 501.679688 L 84.320312 502.199219 L 85.601562 502.761719 L 85.601562 473.398438 L 80.480469 468.28125 C 75.558594 463.359375 75.320312 463.160156 74.238281 463.601562 C 70.519531 465 66.359375 462.238281 66.320312 458.320312 C 66.238281 453.558594 71.28125 450.679688 75.320312 453.121094 C 77.679688 454.601562 78.679688 458.039062 77.519531 460.601562 C 77.078125 461.601562 77.238281 461.839844 82.519531 467.121094 L 88 472.601562 L 88 503.640625 L 88.921875 503.960938 C 89.398438 504.160156 89.921875 504.238281 90.078125 504.121094 C 90.28125 504.039062 90.398438 499.878906 90.398438 494.878906 L 90.398438 485.800781 L 101 475.199219 L 103.238281 475.199219 C 105.359375 475.199219 105.640625 475.078125 107.078125 473.640625 C 109.039062 471.640625 110.921875 471.238281 113.398438 472.199219 C 118.039062 473.960938 118.480469 480.199219 114.160156 482.679688 C 113.320312 483.199219 112.121094 483.601562 111.519531 483.601562 C 108.921875 483.601562 106.238281 481.601562 105.558594 479.121094 C 105.199219 477.679688 105.078125 477.601562 103.480469 477.601562 C 101.839844 477.601562 101.601562 477.800781 97.078125 482.320312 L 92.398438 487 L 92.398438 505.199219 L 93.441406 505.601562 C 94 505.839844 94.640625 506 94.839844 506 C 95.039062 506 95.199219 503.640625 95.199219 500.519531 L 95.199219 495 L 99.878906 490.320312 L 104.601562 485.601562 L 119.839844 485.601562 L 122.359375 483.039062 C 124.839844 480.558594 124.878906 480.480469 124.480469 479.078125 C 123.878906 476.960938 124.519531 474.839844 126.160156 473.320312 C 127.960938 471.679688 129.878906 471.28125 132.199219 472.199219 C 134.441406 473.039062 135.679688 474.71875 135.878906 477.160156 C 136.078125 479.558594 135.078125 481.519531 133 482.679688 C 131.121094 483.761719 129.71875 483.839844 127.71875 483 L 126.238281 482.359375 L 123.398438 485.199219 L 120.601562 488 L 105.359375 488 L 101.480469 491.878906 L 97.601562 495.800781 L 97.601562 501.480469 C 97.601562 506.921875 97.640625 507.199219 98.398438 507.199219 C 98.839844 507.199219 99.199219 506.960938 99.199219 506.679688 C 99.199219 506.398438 100.71875 504.679688 102.558594 502.839844 C 105.878906 499.519531 105.921875 499.480469 105.519531 498.078125 C 104.71875 495.160156 107.160156 491.558594 110.320312 491 C 112.359375 490.679688 114.921875 491.71875 116.078125 493.28125 C 117.878906 495.839844 117.238281 499.878906 114.761719 501.71875 C 113.121094 502.878906 110.320312 503.078125 108.679688 502.078125 L 107.28125 501.28125 L 104.160156 504.441406 C 102.199219 506.398438 101.160156 507.71875 101.398438 507.960938 C 101.640625 508.160156 103.199219 508.761719 104.960938 509.320312 C 107.480469 510.078125 108.359375 510.199219 109.398438 509.878906 C 111.160156 509.359375 113.320312 509.800781 114.761719 511 C 115.640625 511.800781 116.359375 512 117.960938 512 L 120 512 L 120 504.640625 L 122.398438 502.199219 C 124.71875 499.839844 124.761719 499.761719 124.441406 498.28125 C 123.960938 496.199219 124.601562 494.078125 126.238281 492.558594 C 129.960938 489.039062 136 491.800781 136 497.039062 C 136 501.199219 131.238281 504.078125 127.519531 502.160156 L 126.28125 501.519531 L 124.160156 503.640625 L 122 505.761719 L 122 512 L 126.199219 512 L 138.398438 499.800781 L 138.398438 485.679688 L 141.121094 483.039062 L 143.878906 480.398438 L 143.679688 478.238281 C 143.398438 474.761719 145.398438 472.160156 148.761719 471.71875 C 150.71875 471.441406 153.359375 472.761719 154.398438 474.519531 C 156.160156 477.359375 155 481.398438 152 482.878906 C 150.160156 483.800781 148.519531 483.800781 146.601562 482.800781 L 145 482 L 140.71875 486.28125 L 140.800781 493.398438 L 140.839844 500.558594 L 135.121094 506.28125 L 129.398438 512 L 135.800781 512 L 140.878906 506.921875 L 146 501.839844 L 144.921875 500.71875 C 143.441406 499.160156 143.160156 495.601562 144.398438 493.679688 C 145.238281 492.359375 147.878906 490.800781 149.398438 490.800781 C 150.921875 490.800781 153.558594 492.320312 154.398438 493.679688 C 156.679688 497.441406 153.878906 502.800781 149.601562 502.800781 C 148.320312 502.800781 147.71875 503.28125 143.601562 507.398438 L 139 512 L 141.921875 512 C 144.320312 512 145.039062 511.839844 146.039062 511.078125 C 147.761719 509.839844 151.039062 509.839844 152.761719 511.078125 C 153.761719 511.839844 154.480469 512 156.800781 512 L 159.601562 512 L 159.640625 477.679688 C 159.640625 458.839844 159.71875 443.039062 159.800781 442.640625 C 159.878906 442.199219 162.878906 438.921875 166.480469 435.320312 L 173 428.800781 L 203.441406 428.800781 L 207.761719 433.199219 L 305.398438 433.199219 L 311.320312 427.28125 C 316.921875 421.679688 317.199219 421.320312 317.199219 419.800781 C 317.199219 417.839844 318.359375 415.878906 320.078125 414.761719 C 321.121094 414.121094 321.878906 414 323.558594 414.121094 C 325.480469 414.238281 325.878906 414.441406 327.28125 415.921875 C 328.640625 417.398438 328.800781 417.800781 328.800781 419.640625 C 328.800781 423.398438 326.441406 425.761719 322.761719 425.679688 L 320.960938 425.640625 L 314.359375 432.238281 L 307.800781 438.800781 L 205.359375 438.800781 L 203.238281 436.601562 L 201.121094 434.398438 L 175.398438 434.398438 L 170.28125 439.519531 L 165.199219 444.601562 L 165.199219 512 L 168 512 L 168 447.800781 L 177.800781 438 L 201.800781 438 L 210.800781 447 L 210.800781 449.28125 C 210.800781 451.558594 210.800781 451.601562 212.441406 452.398438 C 213.640625 453.039062 214.28125 453.71875 214.878906 455.078125 C 215.960938 457.519531 215.601562 459.28125 213.601562 461.28125 C 212.28125 462.640625 211.878906 462.800781 210.160156 462.800781 C 206.398438 462.800781 204.160156 460.359375 204.480469 456.71875 C 204.71875 454.558594 206.199219 452.558594 207.878906 452.160156 C 208.679688 451.960938 208.800781 451.640625 208.800781 450.039062 C 208.800781 448.238281 208.71875 448.121094 204.878906 444.28125 L 201 440.398438 L 178.28125 440.398438 L 174.160156 444.519531 L 170 448.640625 L 170 512 L 174.398438 512 L 174.398438 449.039062 L 178.960938 444.398438 L 188.199219 444.398438 C 193.238281 444.398438 198.199219 444.601562 199.199219 444.839844 C 203.679688 445.878906 205.320312 451 202.160156 454.160156 C 199.121094 457.160156 193.960938 455.71875 192.921875 451.601562 L 192.558594 450.199219 L 187 450.078125 C 182.28125 450 181.398438 450.078125 180.761719 450.640625 C 180.039062 451.28125 180 452.601562 180 481.679688 L 180 512 L 182 512 C 183.441406 512 184.359375 511.71875 185.441406 511 C 186.441406 510.320312 187.441406 510 188.601562 510 C 189.761719 510 190.761719 510.320312 191.761719 511 C 192.71875 511.640625 193.800781 512 194.800781 512 L 196.398438 512 L 196.398438 507.039062 L 193.761719 504.359375 C 191.238281 501.839844 191.039062 501.71875 189.839844 502.039062 C 187.960938 502.601562 186.078125 502.039062 184.601562 500.558594 C 182.199219 498.160156 182.359375 494.761719 185.039062 492.398438 C 186.160156 491.441406 186.800781 491.199219 188.320312 491.199219 C 192.640625 491.199219 195.359375 495.398438 193.441406 499.160156 C 192.839844 500.238281 192.878906 500.28125 195.839844 503.238281 L 198.800781 506.160156 L 198.800781 512 L 200.800781 512 C 201.921875 512 202.800781 511.839844 202.800781 511.679688 C 202.800781 510.960938 205.238281 510 207.121094 510 C 208.679688 510 209.398438 510.238281 210.320312 511 C 211.28125 511.800781 211.960938 512 213.761719 512 L 216 512 L 216 505.359375 L 213.441406 502.839844 L 210.878906 500.28125 L 209.761719 501.160156 C 208.359375 502.28125 205.558594 502.28125 203.800781 501.199219 C 201.238281 499.640625 200.480469 496.039062 202.121094 493.558594 C 203.320312 491.761719 205.398438 490.71875 207.320312 490.960938 C 210.320312 491.320312 212.160156 493.359375 212.238281 496.519531 C 212.320312 498.398438 212.441406 498.640625 215.160156 501.359375 L 218 504.199219 L 218 512 L 220.558594 512 C 222.480469 512 223.519531 511.761719 224.601562 511.160156 C 226.28125 510.160156 229.519531 510.238281 230.71875 511.359375 C 231.160156 511.71875 232.121094 512 233.039062 512 L 234.601562 512 L 222.199219 499.601562 L 209.800781 487.199219 L 196.640625 487.199219 L 194.160156 484.761719 L 191.71875 482.320312 L 190.039062 482.839844 C 186.558594 483.878906 183.238281 481.640625 182.878906 478.039062 C 182.238281 471.359375 191.761719 469.640625 193.679688 476.078125 C 194 477.238281 194 478 193.679688 479.121094 C 193.199219 480.601562 193.238281 480.601562 195.480469 482.878906 L 197.761719 485.199219 L 211 485.199219 L 224.398438 498.601562 C 235.558594 509.800781 237.960938 512 238.878906 512 C 239.839844 512 240 511.839844 240 510.878906 C 240 510 237.71875 507.480469 226.480469 496.28125 L 212.960938 482.800781 L 208.921875 482.839844 C 204.679688 482.878906 203.960938 482.679688 202.441406 481.078125 C 201.320312 479.839844 200.878906 476.921875 201.601562 475.199219 C 202.480469 473.078125 204.160156 472 206.601562 472 C 208.441406 472 209 472.199219 210.160156 473.199219 C 212.238281 475.039062 212.761719 477.160156 211.761719 479.761719 C 211.558594 480.238281 211.761719 480.398438 212.640625 480.398438 C 213.640625 480.398438 215.960938 482.558594 228.121094 494.71875 C 241.800781 508.398438 242.398438 509.078125 242.398438 510.519531 C 242.398438 511.878906 242.480469 512 243.601562 512 C 244.800781 512 244.800781 512 244.800781 509.679688 L 244.800781 507.398438 L 230.199219 492.800781 L 215.601562 478.199219 L 215.601562 476 C 215.601562 473.800781 215.558594 473.761719 213.078125 471.28125 L 210.558594 468.800781 L 194.28125 468.800781 L 192.238281 466.761719 C 190.28125 464.800781 190.121094 464.71875 187.921875 464.640625 C 185.839844 464.601562 185.480469 464.480469 184.121094 463.078125 C 182.71875 461.679688 182.601562 461.441406 182.601562 459.199219 C 182.601562 457 182.71875 456.71875 184.039062 455.359375 C 188.519531 450.878906 195.761719 456.160156 192.839844 461.800781 L 192 463.359375 L 193.679688 465.078125 L 195.359375 466.800781 L 211.839844 466.800781 L 214.761719 469.761719 C 217.71875 472.71875 217.71875 472.71875 217.71875 474.921875 L 217.679688 477.078125 L 232.238281 491.640625 L 246.800781 506.199219 L 246.800781 512 L 249.199219 512 L 249.199219 505.800781 L 238 494.601562 C 231.839844 488.441406 226.800781 483.199219 226.800781 482.921875 C 226.800781 482.640625 226.359375 482.320312 225.800781 482.160156 C 224.601562 481.878906 222.519531 479.558594 222.160156 478.199219 C 220.921875 473.238281 226.960938 469.320312 230.960938 472.441406 C 234.121094 474.921875 233.800781 480.160156 230.398438 481.679688 C 229.71875 481.960938 229.199219 482.28125 229.199219 482.398438 C 229.199219 482.519531 234.160156 487.558594 240.199219 493.601562 L 251.199219 504.601562 L 251.199219 512 L 253.601562 512 L 253.601562 505 L 236 487.398438 L 236 467.761719 L 233.199219 465 C 230.601562 462.398438 230.359375 462.28125 229.398438 462.71875 C 228.839844 463 227.558594 463.199219 226.601562 463.199219 C 223.28125 463.199219 220.679688 459.640625 221.601562 456.398438 C 222.878906 452 228.160156 450.800781 231.199219 454.28125 C 232.441406 455.679688 232.480469 455.878906 232.28125 458.238281 L 232.078125 460.71875 L 235.039062 463.640625 L 238 466.558594 L 238 486.199219 L 255.601562 503.800781 L 255.601562 512 L 258.320312 512 C 260.238281 512 261.480469 511.761719 262.601562 511.199219 C 264.558594 510.199219 265.839844 510.199219 267.800781 511.199219 C 269.640625 512.121094 273.601562 512.320312 273.601562 511.480469 C 273.601562 511.199219 272.640625 510.039062 271.480469 508.878906 L 269.359375 506.800781 L 263.839844 506.800781 L 244.800781 487.839844 L 244.800781 484.921875 C 244.800781 482.480469 244.679688 482 244.078125 481.839844 C 241.519531 481 240.039062 477 241.359375 474.441406 C 243.519531 470.28125 249.921875 470.960938 251.160156 475.480469 C 251.839844 477.839844 250.558594 480.71875 248.441406 481.601562 C 247.238281 482.078125 247.199219 482.199219 247.199219 484.558594 L 247.199219 487 L 255.921875 495.71875 L 264.601562 504.398438 L 270.238281 504.398438 L 273.121094 507.320312 C 274.960938 509.160156 276 510.519531 276 511.121094 C 276 511.839844 276.238281 512 277.199219 512 C 278.28125 512 278.398438 511.878906 278.398438 510.679688 C 278.398438 509.519531 277.28125 508.28125 267.199219 498.199219 L 256 487 L 256 469.398438 L 252.519531 465.921875 L 249 462.441406 L 247.398438 462.878906 C 244.960938 463.519531 242.878906 463 241.160156 461.238281 C 238.558594 458.640625 238.558594 454.960938 241.160156 452.359375 C 243.558594 449.960938 247.121094 449.761719 249.640625 451.878906 C 251.921875 453.839844 252.558594 456.601562 251.359375 459.558594 L 250.71875 461.160156 L 254.359375 464.640625 L 258 468.078125 L 258 485.800781 L 280.398438 508.199219 L 280.398438 512 L 283.199219 512 L 283.199219 507.480469 C 283.199219 503.078125 283.160156 502.921875 282.238281 502.480469 C 280.71875 501.800781 279.121094 499.398438 278.921875 497.441406 C 278.640625 495.238281 279.601562 493.121094 281.519531 491.679688 C 283.398438 490.28125 286.921875 490.160156 288.679688 491.441406 C 292.398438 494.199219 292.640625 498.839844 289.238281 501.71875 C 288.558594 502.28125 287.480469 502.839844 286.800781 503 L 285.601562 503.28125 L 285.601562 512 L 288.558594 512 C 290.199219 512 291.800781 511.878906 292.160156 511.761719 C 292.71875 511.558594 292.800781 510.320312 292.800781 502.039062 L 292.800781 492.601562 L 290.238281 489.878906 L 287.640625 487.199219 L 277.398438 487.199219 L 264.398438 474.199219 L 264.398438 463.601562 L 263.078125 463.039062 C 258.960938 461.320312 257.960938 455.960938 261.160156 452.761719 C 265.640625 448.238281 273 452.28125 271.839844 458.601562 C 271.519531 460.320312 269.839844 462.359375 268.121094 463.039062 L 266.800781 463.601562 L 266.800781 473.878906 L 272.558594 479.519531 L 278.359375 485.199219 L 288.601562 485.199219 L 291.921875 488.519531 L 295.199219 491.800781 L 295.199219 501.320312 C 295.199219 506.519531 295.238281 510.800781 295.320312 510.800781 C 295.839844 510.800781 299.878906 509.480469 300.121094 509.199219 C 300.320312 509.039062 300.679688 507.480469 300.960938 505.761719 L 301.480469 502.601562 L 300.121094 501.160156 C 298.761719 499.71875 298.71875 499.679688 298.761719 495.960938 L 298.761719 492.199219 L 293.519531 486.921875 C 288.878906 482.28125 288.160156 481.679688 287.480469 482.078125 C 286.039062 482.839844 282.921875 482.558594 281.398438 481.558594 C 279.839844 480.480469 278.398438 477.960938 278.398438 476.199219 C 278.398438 474.441406 279.921875 471.71875 281.359375 470.800781 C 283.320312 469.640625 286.558594 469.679688 288.441406 470.960938 C 290.960938 472.679688 291.960938 476.359375 290.601562 478.960938 L 289.960938 480.160156 L 295.398438 485.601562 L 300.800781 491 L 300.800781 494.839844 C 300.800781 497.640625 300.960938 498.839844 301.359375 499.160156 C 302.199219 499.839844 303.199219 493.71875 303.199219 488 L 303.199219 483.398438 L 301.519531 482.601562 C 297.199219 480.558594 297.078125 474.320312 301.28125 472.160156 C 302.441406 471.558594 305.238281 471.519531 307.160156 472.039062 C 307.519531 472.160156 307.878906 471.71875 308.121094 470.878906 C 308.441406 469.839844 308.398438 469.441406 307.800781 468.800781 C 307.121094 468.078125 306.558594 468 300.238281 468 L 293.441406 468 L 290.960938 465.558594 C 288.71875 463.320312 288.441406 463.160156 287.601562 463.601562 C 286.28125 464.320312 282.761719 463.921875 281.320312 462.878906 C 277.71875 460.320312 278.160156 454.199219 282.121094 452.121094 C 283.921875 451.199219 286.839844 451.320312 288.558594 452.359375 C 290.078125 453.320312 291.601562 456 291.601562 457.71875 C 291.601562 458.320312 291.320312 459.480469 291 460.28125 L 290.359375 461.761719 L 292.28125 463.679688 L 294.160156 465.601562 L 300.960938 465.601562 C 306.71875 465.601562 307.839844 465.71875 308.480469 466.28125 C 308.878906 466.640625 309.28125 466.839844 309.320312 466.761719 C 309.398438 466.679688 309.960938 465.160156 310.558594 463.398438 C 312.558594 457.71875 314.601562 453.71875 317.839844 449.320312 L 318.480469 448.398438 L 313.398438 448.398438 L 310.921875 450.839844 C 308.441406 453.238281 308.441406 453.28125 309.078125 454.28125 C 309.921875 455.558594 309.921875 458.238281 309.078125 459.878906 C 307.558594 462.800781 302.878906 463.839844 300.398438 461.761719 C 297.039062 458.878906 297.238281 454.28125 300.878906 451.960938 C 301.960938 451.28125 302.640625 451.199219 304.640625 451.359375 L 307.078125 451.558594 L 309.839844 448.761719 L 312.558594 446 L 319.640625 446 C 326.160156 446 326.71875 446.039062 327.398438 446.800781 C 327.960938 447.398438 328.640625 447.601562 330.160156 447.601562 L 332.199219 447.601562 L 331.960938 440.320312 C 331.800781 436.28125 331.558594 422.28125 331.398438 409.199219 L 331.121094 385.398438 L 338.761719 377.800781 L 346.398438 370.199219 L 346.398438 357 L 354.199219 349.199219 L 373.441406 349.199219 L 376.359375 352.160156 C 379.121094 354.960938 379.359375 355.121094 380.761719 354.921875 C 385.320312 354.320312 388.480469 359.398438 385.878906 363.238281 C 382.878906 367.71875 376.398438 365.558594 376.398438 360.121094 C 376.398438 359.28125 376.679688 358.160156 377.039062 357.640625 C 377.679688 356.761719 377.640625 356.679688 375.160156 354.160156 L 372.640625 351.601562 L 355 351.601562 L 351.679688 354.921875 L 348.398438 358.199219 L 348.398438 371.398438 L 333.28125 386.601562 L 333.679688 416.199219 C 334.121094 445.078125 334.121094 445.839844 334.921875 446.71875 C 335.480469 447.320312 336.199219 447.601562 337.121094 447.601562 L 338.519531 447.601562 L 337.679688 446.679688 L 336.800781 445.761719 L 336.800781 387 L 351.601562 372.199219 L 351.601562 359.359375 L 356.640625 354.398438 L 367.519531 354.398438 L 370.398438 356.039062 L 373.238281 357.679688 L 373.160156 360.878906 C 373.078125 363.839844 373.160156 364.078125 374.199219 365.199219 L 375.359375 366.398438 L 399.359375 366.398438 L 423.398438 366.359375 L 424.839844 364.28125 C 425.640625 363.121094 427.839844 360.480469 429.679688 358.398438 C 431.558594 356.28125 433.28125 354.199219 433.519531 353.71875 C 434.359375 352.160156 434.078125 349.878906 432.800781 347.878906 L 431.601562 346 L 406.601562 346 L 403.398438 342.800781 L 400.199219 339.601562 L 383.398438 339.601562 L 376.480469 332.679688 L 369.601562 325.800781 L 369.601562 318.199219 L 365 313.601562 L 360.398438 309 L 360.398438 269.28125 L 358.800781 267.679688 C 357.359375 266.28125 357.199219 265.878906 357.199219 264.160156 C 357.199219 259.679688 361.039062 257.121094 364.761719 259.121094 C 366.640625 260.121094 367.679688 262.160156 367.480469 264.28125 C 367.238281 266.558594 366.238281 267.960938 364.359375 268.761719 L 362.800781 269.398438 L 362.800781 308.199219 L 367.398438 312.800781 L 372 317.398438 L 372 325 L 384.28125 337.28125 L 392.640625 337.199219 L 401 337.160156 L 404.039062 340.398438 L 407.121094 343.601562 L 429.359375 343.601562 L 428 342.199219 L 426.640625 340.800781 L 409.398438 340.800781 L 405.800781 337.199219 L 402.199219 333.601562 L 389.398438 333.601562 L 386.359375 330.558594 L 383.320312 327.519531 L 381.679688 328 C 380.28125 328.441406 379.878906 328.398438 378.558594 327.761719 C 373.839844 325.441406 374.320312 318.921875 379.238281 317.601562 C 382.601562 316.679688 385.601562 319.28125 385.601562 323.039062 C 385.601562 324.960938 385.679688 325.121094 388.320312 327.71875 L 391.039062 330.398438 L 403.800781 330.398438 L 407.199219 333.800781 L 410.601562 337.199219 L 417.640625 337.199219 C 424.199219 337.199219 424.71875 337.160156 424.921875 336.441406 C 425 336.039062 426.039062 334.960938 427.199219 334.039062 L 429.28125 332.398438 L 413.800781 332.398438 L 409.761719 328.359375 C 405.878906 324.480469 405.679688 324.320312 405.199219 325.160156 C 404.960938 325.640625 404.160156 326.398438 403.480469 326.800781 C 399.078125 329.519531 393.800781 324.28125 396.199219 319.601562 C 397.199219 317.679688 398.679688 316.800781 400.921875 316.800781 L 402.960938 316.800781 L 415.039062 328.800781 L 424.359375 328.800781 C 434.761719 328.800781 433.960938 329 435.601562 325.878906 L 436.398438 324.398438 L 430.558594 324.398438 C 424.800781 324.398438 424.71875 324.398438 423.921875 325.398438 C 423.480469 325.960938 422.601562 326.679688 422 327 C 417.640625 329.238281 412.71875 323.960938 415.121094 319.601562 C 417.199219 315.800781 422.441406 315.800781 424.398438 319.601562 L 425.199219 321.199219 L 431 321.199219 C 437.640625 321.199219 437.558594 321.28125 435.960938 317.558594 L 435.121094 315.601562 L 432.679688 315.601562 C 430.921875 315.601562 430.039062 315.398438 429.480469 314.921875 C 428.761719 314.238281 426.800781 314.199219 402.441406 314.078125 L 376.199219 314 L 372.921875 310.71875 L 369.601562 307.398438 L 369.601562 236.160156 L 366.71875 233.320312 C 364.441406 231.121094 363.441406 230.441406 362.238281 230.199219 C 358.960938 229.640625 357.359375 226.398438 358.800781 223.359375 C 360.28125 220.320312 364 219.679688 366.398438 222.078125 C 367.921875 223.558594 368.28125 225.519531 367.441406 227.238281 L 366.761719 228.558594 L 370 231.800781 L 373.199219 235 L 373.199219 306.640625 L 375.558594 308.71875 L 377.960938 310.800781 L 403.558594 310.800781 C 428.921875 310.800781 429.160156 310.800781 430.601562 311.640625 C 431.398438 312.121094 432.121094 312.441406 432.199219 312.320312 C 432.28125 312.238281 431.800781 311.320312 431.078125 310.28125 C 429.839844 308.480469 429.71875 308.441406 427.761719 308.398438 C 426.121094 308.398438 425.558594 308.199219 424.800781 307.398438 L 423.839844 306.398438 L 423 307.199219 C 420.878906 309.160156 417.28125 308.960938 415.441406 306.800781 C 411.960938 302.640625 415.960938 296.320312 421 298 C 422.519531 298.480469 424.398438 300.480469 424.398438 301.558594 C 424.398438 302.480469 427.398438 305.359375 427.960938 305 C 428.960938 304.398438 426.640625 296.921875 424.921875 295.121094 C 423.878906 294.039062 423.679688 294 420 294 L 416.199219 294 L 410.398438 299.800781 C 407.199219 303 404.398438 305.601562 404.160156 305.601562 C 403.878906 305.601562 403.558594 305.878906 403.441406 306.238281 C 403.320312 306.558594 402.398438 307.199219 401.398438 307.640625 C 399.160156 308.640625 396.960938 308.199219 395.441406 306.398438 C 392.199219 302.519531 395.441406 296.519531 400.238281 297.441406 C 401.640625 297.679688 403.679688 299.28125 404.078125 300.398438 C 404.238281 300.839844 405.800781 299.519531 409.480469 295.878906 L 414.601562 290.800781 L 419.679688 290.800781 C 424.679688 290.800781 424.71875 290.800781 424.960938 289.839844 C 425.078125 289.320312 425.320312 288.601562 425.441406 288.238281 C 425.640625 287.679688 424.960938 287.601562 419.121094 287.601562 L 412.601562 287.601562 L 409 291.199219 L 405.398438 294.800781 L 390.558594 294.800781 L 388 297.398438 C 385.480469 299.921875 385.441406 300 385.558594 301.960938 C 385.71875 305.199219 384.160156 307.238281 381.160156 307.800781 C 378.359375 308.28125 375.199219 305.398438 375.199219 302.398438 C 375.199219 300.441406 376.601562 298.398438 378.558594 297.441406 C 380.078125 296.679688 380.199219 296.679688 382.121094 297.359375 L 384.121094 298.078125 L 389.800781 292.398438 L 405 292.398438 L 408.398438 289 L 411.800781 285.601562 L 419.800781 285.601562 C 426.121094 285.558594 427.960938 285.441406 428.558594 285 C 429.320312 284.441406 431.878906 283.519531 434.121094 283.039062 C 434.878906 282.839844 435.199219 282.519531 435.199219 281.960938 C 435.199219 280.878906 437.558594 278.519531 438.960938 278.160156 C 439.601562 278 440.761719 278.078125 441.558594 278.359375 L 443 278.800781 L 453.121094 268.679688 C 458.640625 263.160156 463.199219 258.398438 463.199219 258.121094 C 463.199219 257.878906 463 257.160156 462.800781 256.558594 L 462.359375 255.441406 L 448.601562 269.199219 L 440.601562 269.199219 L 429 280.800781 L 406 280.800781 L 406 282.28125 C 406 286.558594 401.160156 288.960938 397.839844 286.359375 C 394.480469 283.71875 395.078125 278.960938 398.960938 277.039062 C 400.480469 276.28125 400.640625 276.28125 402.441406 276.921875 C 404 277.480469 406.078125 277.601562 415.839844 277.601562 L 427.398438 277.601562 L 439 266 L 447 266 L 453.921875 259.078125 L 460.839844 252.121094 L 460.160156 250.679688 C 459.761719 249.878906 459.359375 249.199219 459.238281 249.199219 C 459.078125 249.199219 456.199219 252 452.800781 255.398438 L 446.601562 261.601562 L 437.039062 261.601562 L 430.398438 268.199219 L 423.761719 274.800781 L 411.761719 274.800781 L 409.398438 272.398438 L 407.039062 270 L 386.238281 270 L 384.71875 268.519531 C 383.199219 267.039062 383.199219 267.039062 382.039062 267.71875 C 378.558594 269.761719 374 267.078125 374 263 C 374 260.601562 376.28125 258.039062 378.679688 257.71875 C 381.839844 257.28125 384.398438 259.679688 384.398438 263.078125 C 384.398438 264.761719 384.601562 265.199219 385.71875 266.320312 L 387.039062 267.601562 L 407.839844 267.601562 L 412.558594 272.398438 L 423.398438 272.398438 L 429.800781 266 L 436.199219 259.601562 L 445.398438 259.601562 L 458.078125 246.921875 L 457.441406 245.640625 C 457.078125 244.960938 456.640625 244.398438 456.480469 244.398438 C 456.320312 244.398438 453.238281 247.359375 449.601562 251 L 443 257.601562 L 426.160156 257.601562 L 423.519531 260.320312 L 424.320312 261.519531 C 425.558594 263.238281 425.800781 265.519531 424.921875 267.199219 C 422.039062 272.761719 413.960938 270.519531 414.519531 264.28125 C 414.761719 261.398438 417.199219 259.199219 420.078125 259.199219 C 421.160156 259.199219 421.800781 258.800781 423.398438 257.199219 L 425.359375 255.199219 L 442.199219 255.199219 L 448.761719 248.640625 L 455.28125 242.121094 L 454.359375 240.679688 C 453.839844 239.878906 453.320312 239.199219 453.199219 239.199219 C 453.078125 239.199219 450.039062 242.160156 446.398438 245.800781 L 439.800781 252.398438 L 419.441406 252.398438 L 413.601562 258.199219 L 407.71875 264 L 395.800781 264 L 388.800781 256.960938 C 384.960938 253.121094 381.121094 249.601562 380.28125 249.160156 C 378.601562 248.28125 377.199219 246.320312 377.199219 244.878906 C 377.199219 243.359375 378.398438 241.199219 379.640625 240.601562 C 380.238281 240.28125 381.480469 240 382.359375 240 C 386.28125 240 388.441406 245.078125 385.71875 248.078125 C 385.078125 248.800781 385.238281 249.039062 390.800781 254.601562 L 396.601562 260.398438 L 406.601562 260.398438 L 417.800781 249.199219 L 438.199219 249.199219 L 451.199219 236.199219 L 450.121094 234.679688 L 449.039062 233.160156 L 443 239.199219 L 436.921875 245.238281 L 426.199219 245.199219 L 415.480469 245.160156 L 410.238281 250.359375 L 405 255.601562 L 395.359375 255.601562 L 392.28125 252.679688 L 389.199219 249.800781 L 389.199219 230.160156 L 388.039062 229.039062 L 386.839844 227.878906 L 385.601562 228.960938 C 383.28125 230.921875 380.359375 230.839844 378.640625 228.800781 C 376.640625 226.398438 376.800781 224 379.039062 222.039062 C 380.160156 221.039062 380.800781 220.800781 382.238281 220.800781 C 383.800781 220.800781 384.28125 221 385.441406 222.160156 C 386.199219 222.921875 386.800781 223.761719 386.800781 224.078125 C 386.800781 224.359375 387.878906 225.679688 389.199219 227 L 391.601562 229.359375 L 391.601562 249.039062 L 393.71875 251.121094 L 395.839844 253.199219 L 404.398438 253.199219 L 409.480469 248 L 414.519531 242.800781 L 436.199219 242.800781 L 447.71875 231.28125 L 446.960938 230.238281 C 446.519531 229.679688 446.121094 229.199219 446 229.199219 C 445.878906 229.199219 443.558594 231.441406 440.800781 234.199219 L 435.800781 239.199219 L 409.761719 239.199219 L 408.238281 240.761719 C 406.921875 242.121094 406.761719 242.441406 407 243.71875 C 407.320312 245.441406 406.398438 247.640625 404.878906 248.640625 C 403.519531 249.519531 400.878906 249.519531 399.519531 248.640625 C 398.160156 247.761719 397.121094 245.199219 397.480469 243.601562 C 397.839844 241.800781 399.761719 240.039062 401.71875 239.71875 C 403.039062 239.519531 403.921875 238.960938 405.839844 237.121094 L 408.28125 234.800781 L 433.800781 234.800781 L 443.160156 225.441406 L 441.480469 223.121094 L 437.039062 227.558594 L 432.601562 232 L 417.640625 232 C 403 232 402.640625 232 400.921875 231.121094 C 397.71875 229.519531 396.640625 227 398 224.199219 C 399.199219 221.71875 401.679688 220.878906 404.359375 222 C 405.800781 222.601562 406.640625 223.800781 407 225.761719 L 407.28125 227.199219 L 431 227.199219 L 434.761719 223.441406 C 438.558594 219.601562 438.640625 219.480469 437.28125 217.878906 C 436.71875 217.238281 436.398438 217.441406 432.800781 221 L 428.921875 224.800781 L 411.398438 224.800781 L 404.800781 218.199219 L 398.199219 211.601562 L 372.160156 211.601562 L 368.238281 215.601562 L 355.359375 215.601562 L 353.078125 213.28125 L 350.800781 210.960938 L 350.800781 197 L 354.519531 193.28125 L 358.28125 189.558594 L 357.480469 187.960938 C 356.800781 186.558594 356.761719 186.121094 357.160156 184.800781 C 358.601562 180.039062 365 180 366.441406 184.761719 C 367.320312 187.679688 364.839844 190.800781 361.601562 190.800781 C 360.359375 190.800781 359.761719 191.238281 356.679688 194.320312 L 353.199219 197.800781 L 353.199219 210.160156 L 354.878906 211.878906 L 356.558594 213.601562 L 367.039062 213.601562 L 369.199219 211.398438 L 371.359375 209.199219 L 399 209.199219 L 412.199219 222.398438 L 428.199219 222.398438 L 431.761719 218.839844 L 435.28125 215.320312 L 434.28125 214.199219 L 433.320312 213.039062 L 429.960938 216.519531 L 426.640625 220 L 413.839844 220 L 399.761719 206 L 366.078125 206 L 365.28125 207.359375 C 363.121094 211 357.398438 209.71875 356.558594 205.398438 C 355.960938 202.160156 359.519531 199 362.601562 200 C 364.039062 200.480469 366 202.441406 366 203.441406 C 366 203.921875 368.640625 204 383.519531 204 L 401 204 L 414.601562 217.601562 L 425.800781 217.601562 L 428.921875 214.480469 C 431.800781 211.601562 431.960938 211.320312 431.441406 210.601562 C 430.878906 209.839844 430.71875 209.921875 427.71875 212.878906 L 424.601562 216 L 415.800781 216 L 409.199219 209.398438 L 409.199219 200.160156 L 407.28125 198.28125 L 405.359375 196.398438 L 391.398438 196.398438 L 387.921875 192.921875 C 384.480469 189.480469 384.441406 189.480469 383.238281 190 C 380.839844 191 378.199219 189.960938 376.960938 187.519531 C 376.238281 186.121094 376.238281 185.039062 377.039062 183.359375 C 377.839844 181.679688 379.398438 180.800781 381.640625 180.800781 C 383 180.800781 383.519531 181.039062 384.679688 182.199219 C 385.921875 183.441406 386.039062 183.761719 385.960938 185.601562 L 385.839844 187.640625 L 392.199219 194 L 406.238281 194 L 408.921875 196.71875 L 411.601562 199.441406 L 411.601562 208.640625 L 417.039062 214 L 423.441406 214 L 426.359375 211.039062 L 429.320312 208.078125 L 427.359375 205.558594 L 425.398438 203.078125 L 425.199219 204.839844 C 424.878906 207.199219 424.28125 208.160156 422.640625 208.960938 C 420.960938 209.761719 420.359375 209.761719 418.601562 209.039062 C 417 208.359375 415.601562 206.320312 415.601562 204.679688 C 415.601562 201.601562 418.71875 199.160156 421.601562 200 C 422.28125 200.199219 422.800781 200.238281 422.800781 200.121094 C 422.800781 200.039062 422.160156 199.121094 421.359375 198.160156 C 420 196.480469 419.800781 196.398438 417.839844 196.398438 L 415.800781 196.398438 L 411 191.601562 C 408.359375 188.960938 406 186.800781 405.71875 186.800781 C 405.441406 186.800781 404.960938 187.320312 404.601562 188 C 402.960938 191.160156 397.839844 191.160156 396.199219 188 C 395.199219 186.039062 395.441406 184.160156 396.921875 182.601562 C 399.160156 180.121094 402.878906 180.398438 404.558594 183.199219 C 405 183.960938 405.558594 184.398438 406.121094 184.398438 C 406.71875 184.398438 408.640625 186 412 189.398438 C 416.28125 193.679688 418 195.078125 418 194.199219 C 418 194.078125 416.078125 191.519531 413.71875 188.480469 C 411.320312 185.480469 408.160156 181.320312 406.640625 179.28125 L 403.921875 175.601562 L 363.800781 175.601562 L 343.800781 155.601562 L 337.398438 155.601562 L 319.601562 173.398438 L 319.601562 194.800781 L 327.199219 194.800781 L 327.199219 215.960938 L 323.519531 216.078125 L 319.800781 216.199219 L 319.679688 228.71875 C 319.640625 235.640625 319.71875 241.199219 319.878906 241.121094 C 322.800781 239.640625 323.398438 239.519531 325 240.039062 C 325.960938 240.398438 326.921875 241.121094 327.480469 241.960938 C 330.71875 246.800781 324 252.039062 320 247.800781 C 319.199219 246.921875 318.71875 246.800781 316.519531 246.800781 L 314 246.800781 L 314 216 L 299.199219 216 L 299.199219 251.800781 L 303.519531 256.28125 L 307.839844 260.800781 L 344.238281 260.800781 L 346.921875 263.519531 L 349.601562 266.238281 L 349.601562 306 L 343.960938 306 L 344.078125 309.679688 L 344.199219 313.398438 L 348.878906 316.640625 L 353.601562 319.921875 L 355.199219 319.121094 C 360.320312 316.558594 365.078125 323.121094 361.359375 327.601562 C 359.238281 330.078125 355.320312 329.960938 353.320312 327.320312 C 352.441406 326.160156 352.238281 325.519531 352.238281 323.761719 L 352.28125 321.640625 L 347.160156 318.160156 L 342 314.640625 L 342 306 L 336.398438 306 L 336.320312 296.519531 L 336.199219 287.039062 L 332 285.921875 L 327.800781 284.800781 L 323.71875 288.878906 L 319.601562 293 L 319.601562 341.398438 L 308 353 L 308 363.199219 L 300.800781 363.199219 L 300.800781 349.800781 L 304.199219 346.398438 C 306.078125 344.519531 307.601562 342.921875 307.601562 342.800781 C 307.601562 342.679688 306.199219 342.601562 304.519531 342.601562 L 301.398438 342.601562 L 301.28125 332.761719 L 301.199219 322.921875 L 298.558594 322.199219 L 295.921875 321.480469 L 290.558594 326.839844 L 285.199219 332.199219 L 285.199219 356.640625 L 282.878906 358.921875 L 280.558594 361.199219 L 127.601562 361.199219 L 127.601562 323.480469 L 123.519531 319.359375 L 119.441406 315.199219 L 63.601562 315.199219 L 63.601562 274.398438 L 65.679688 274.398438 L 65.480469 270.28125 C 65.359375 268.039062 65.121094 265.601562 65 264.878906 C 64.601562 263 65.71875 260.238281 67.519531 258.878906 C 69.480469 257.398438 73.121094 257.320312 75.160156 258.761719 C 77.441406 260.398438 78.121094 262.601562 78.320312 268.878906 L 78.480469 274.398438 L 80.039062 274.398438 C 81.519531 274.398438 81.558594 274.441406 81.761719 276.078125 C 81.878906 277.039062 82.039062 283.078125 82.160156 289.519531 C 82.238281 296 82.441406 301.359375 82.601562 301.519531 C 82.71875 301.640625 86.078125 298.519531 90 294.601562 L 97.199219 287.398438 L 97.199219 218.199219 L 109.199219 206.199219 L 109.199219 199.199219 L 87.199219 199.199219 L 87.199219 192 L 69.640625 192 L 68.238281 190.761719 C 66.519531 189.28125 66.078125 187.519531 66.960938 185.480469 C 68.078125 182.761719 69 182.519531 77.078125 182.71875 L 84.199219 182.878906 L 86.398438 180.640625 L 88.558594 178.398438 L 174.71875 178.398438 L 175.160156 177.160156 C 175.398438 176.441406 175.601562 175.640625 175.601562 175.359375 C 175.601562 174.679688 170.078125 171.558594 168.480469 171.359375 C 164.800781 170.878906 162.921875 167.199219 164.800781 164.121094 C 166.078125 161.960938 167.320312 161.601562 173.078125 161.601562 L 178.199219 161.601562 L 182.121094 165.519531 L 186 169.398438 L 186 178 L 190.398438 178 L 190.398438 200 L 179.558594 200 C 173.601562 200 168.800781 200.121094 168.878906 200.28125 C 168.960938 200.480469 169.28125 201.078125 169.558594 201.679688 L 170.121094 202.800781 L 195.199219 202.800781 L 195.199219 175 L 201.800781 181.601562 L 256.320312 181.601562 L 260.601562 179.078125 L 264.839844 176.601562 L 251.839844 176.480469 L 238.800781 176.398438 L 238.800781 171.199219 L 225.601562 171.199219 L 225.601562 162 L 235.800781 162 L 238.679688 159.121094 L 241.601562 156.238281 L 241.601562 145.398438 L 253.601562 133.398438 L 253.601562 124.601562 L 240.398438 111.398438 L 240.398438 1.320312 L 238.558594 1.039062 C 237.519531 0.921875 235.800781 0.800781 234.761719 0.800781 L 232.800781 0.800781 L 232.800781 47.320312 L 235.199219 51.480469 L 237.601562 55.679688 L 237.601562 100.601562 L 234.320312 103.878906 L 231.078125 107.160156 L 231.039062 109.359375 C 231 111.878906 230 113.28125 227.71875 114 C 225.839844 114.640625 224.238281 114.160156 222.800781 112.558594 C 220.480469 109.878906 221.601562 105.921875 225.039062 104.800781 C 225.800781 104.519531 226.558594 104.441406 226.71875 104.558594 C 226.839844 104.71875 228.359375 103.441406 230.078125 101.71875 L 233.199219 98.601562 L 233.199219 56.878906 L 230.800781 52.71875 L 228.398438 48.601562 L 228.398438 0.519531 L 226.121094 0.28125 C 224.878906 0.160156 223.71875 0.121094 223.519531 0.238281 C 223.359375 0.359375 223.199219 13.160156 223.199219 28.679688 L 223.199219 56.921875 L 224.800781 59.800781 C 226 62 226.398438 63.121094 226.398438 64.558594 C 226.398438 65.960938 226.558594 66.398438 227 66.398438 C 228.160156 66.398438 230 67.601562 230.601562 68.800781 C 232.839844 73.121094 228.320312 77.640625 224 75.398438 C 221.078125 73.878906 220.839844 68.679688 223.601562 67.199219 C 225 66.441406 224.679688 63.878906 222.800781 60.761719 L 221.199219 58.078125 L 221.199219 0 L 217.199219 0 L 217.199219 75.039062 L 223.121094 80.921875 C 226.398438 84.160156 229.28125 86.800781 229.519531 86.800781 C 230.28125 86.800781 231.601562 89.28125 231.601562 90.71875 C 231.601562 94.480469 227.320312 96.839844 224.238281 94.839844 C 222.71875 93.839844 222.039062 92.558594 222 90.800781 C 222 89.121094 223.199219 86.960938 224.398438 86.601562 C 225.199219 86.359375 224.71875 85.761719 220.039062 81.039062 L 214.800781 75.71875 L 214.800781 0 L 210.398438 0 L 210.398438 58.160156 L 208.71875 59.878906 L 207.039062 61.601562 L 207.601562 63.679688 C 207.921875 65.078125 208.558594 66.160156 209.441406 67 C 212.839844 70.238281 210.800781 75.199219 206.078125 75.199219 C 204.601562 75.199219 204.078125 74.960938 202.960938 73.839844 C 201.839844 72.71875 201.601562 72.160156 201.601562 70.839844 C 201.601562 68.558594 202.480469 67.039062 204.199219 66.199219 C 205.398438 65.640625 205.640625 65.359375 205.441406 64.679688 C 205.28125 64.199219 205.078125 63.078125 204.960938 62.199219 C 204.761719 60.71875 204.878906 60.480469 206.359375 59 L 208 57.441406 L 208 0 L 204 0 Z M 170.679688 124.558594 C 172.398438 126.441406 172.519531 128.921875 170.960938 130.761719 C 167.878906 134.398438 162 132 162.519531 127.28125 C 163 122.960938 167.800781 121.398438 170.679688 124.558594 Z M 228.839844 123.71875 C 231.320312 125.398438 231.878906 128.039062 230.28125 130.441406 C 228.519531 133.078125 224.71875 133.238281 222.640625 130.761719 C 220.71875 128.519531 221.519531 124.71875 224.160156 123.441406 C 225.921875 122.558594 227.28125 122.640625 228.839844 123.71875 Z M 91.800781 163.28125 C 95.238281 166.441406 93.160156 171.601562 88.480469 171.601562 C 83.878906 171.601562 82.121094 165.480469 85.960938 162.921875 C 88 161.558594 90.078125 161.679688 91.800781 163.28125 Z M 111.800781 163.199219 C 115.039062 166.238281 113 171.601562 108.601562 171.601562 C 105.398438 171.601562 103 168.398438 104 165.441406 C 104.441406 164.121094 105.640625 162.71875 106.800781 162.28125 C 108.039062 161.761719 110.839844 162.320312 111.800781 163.199219 Z M 129.398438 162.398438 C 131.320312 163.121094 132.398438 164.71875 132.398438 166.800781 C 132.398438 171.238281 127.601562 173.398438 124.398438 170.398438 C 122.078125 168.238281 122.519531 164.480469 125.28125 162.800781 C 126.761719 161.921875 127.839844 161.800781 129.398438 162.398438 Z M 151.039062 163.238281 C 154.238281 166.238281 152.121094 171.601562 147.761719 171.601562 C 144.601562 171.601562 142.199219 168.398438 143.199219 165.441406 C 143.640625 164.121094 144.839844 162.71875 146 162.28125 C 147.238281 161.761719 150.039062 162.320312 151.039062 163.238281 Z M 55.558594 164.238281 C 56.761719 165.558594 56.878906 165.839844 56.71875 167.640625 C 56.28125 172.238281 51.160156 173.839844 48.199219 170.359375 C 46.28125 168.039062 47.320312 164 50.160156 162.761719 C 51.839844 162.039062 54.121094 162.640625 55.558594 164.238281 Z M 346.039062 181.878906 C 348.601562 183.398438 349.039062 187.078125 346.960938 189.238281 C 345 191.28125 342 191.28125 339.960938 189.199219 C 338.960938 188.238281 338.800781 187.71875 338.800781 186 C 338.800781 184.160156 338.960938 183.761719 340.160156 182.558594 C 341.28125 181.441406 341.839844 181.199219 343.199219 181.199219 C 344.121094 181.199219 345.398438 181.519531 346.039062 181.878906 Z M 55.480469 183.441406 C 58.039062 185.039062 58.320312 188.839844 56.039062 190.878906 C 53.761719 192.921875 51.558594 192.839844 49.320312 190.601562 C 48.199219 189.480469 48 189 48 187.480469 C 48 183.558594 52.121094 181.359375 55.480469 183.441406 Z M 345.71875 200.679688 C 346.921875 201.28125 348 203.320312 348 204.878906 C 348 206.28125 346.558594 208.359375 345.039062 209.039062 C 342.441406 210.320312 339.601562 209.039062 338.640625 206.238281 C 337.71875 203.558594 339.121094 200.800781 341.761719 200.039062 C 343.121094 199.640625 344 199.800781 345.71875 200.679688 Z M 73.441406 201.160156 C 76.601562 202.601562 77.199219 207.078125 74.558594 209.160156 C 70.441406 212.398438 64.800781 208.078125 67.039062 203.398438 C 67.519531 202.359375 68.238281 201.679688 69.359375 201.160156 C 71.359375 200.238281 71.441406 200.238281 73.441406 201.160156 Z M 55.199219 201.398438 C 55.839844 201.761719 56.640625 202.558594 57 203.199219 C 58.71875 206.558594 56.480469 210.398438 52.800781 210.398438 C 49.121094 210.398438 46.878906 206.558594 48.601562 203.199219 C 49.761719 201 52.800781 200.160156 55.199219 201.398438 Z M 74.078125 222.359375 C 75.679688 223.238281 76.640625 225.878906 76 227.761719 C 75.160156 230.359375 72.441406 231.679688 69.800781 230.800781 C 65.679688 229.441406 65.398438 223.761719 69.359375 221.960938 C 71.121094 221.199219 72.238281 221.28125 74.078125 222.359375 Z M 55.199219 222.199219 C 55.839844 222.558594 56.640625 223.359375 57 224 C 58.71875 227.359375 56.480469 231.199219 52.800781 231.199219 C 49.121094 231.199219 46.878906 227.359375 48.601562 224 C 49.761719 221.800781 52.800781 220.960938 55.199219 222.199219 Z M 346 240.761719 C 346.558594 241.160156 347.238281 242.199219 347.558594 243.078125 C 348.71875 246.320312 346.480469 249.320312 343 249.320312 C 341.480469 249.320312 340.921875 249.121094 339.960938 248.160156 C 338.359375 246.558594 337.960938 244.921875 338.640625 243 C 339.71875 239.839844 343.28125 238.761719 346 240.761719 Z M 365.878906 240.601562 C 366.441406 240.960938 367.121094 241.921875 367.480469 242.679688 C 369.480469 247.558594 363.359375 251.679688 359.640625 247.960938 C 355.480469 243.800781 360.921875 237.359375 365.878906 240.601562 Z M 35.480469 260.601562 C 36.800781 261.480469 37.71875 263.800781 37.398438 265.441406 C 37.28125 266.160156 36.640625 267.28125 36 267.921875 C 34 269.960938 31.199219 269.921875 29.199219 267.921875 C 25.039062 263.800781 30.558594 257.359375 35.480469 260.601562 Z M 73.601562 336.878906 C 75.640625 337.960938 76.800781 339.839844 76.800781 342.121094 C 76.800781 347.601562 70.121094 349.960938 66.441406 345.800781 C 65.398438 344.601562 65.199219 344.039062 65.199219 342.359375 C 65.199219 340.039062 65.960938 338.359375 67.480469 337.28125 C 69.558594 335.800781 71.238281 335.679688 73.601562 336.878906 Z M 98.800781 336.921875 C 103.761719 339.558594 102.640625 346.960938 97.121094 347.839844 C 95.121094 348.199219 93.878906 347.800781 92.199219 346.359375 C 88.121094 342.761719 90.640625 336.28125 96.238281 336.039062 C 96.679688 336 97.839844 336.398438 98.800781 336.921875 Z M 99.121094 356.800781 C 102.761719 359 102.960938 363.679688 99.601562 366.558594 C 98.601562 367.398438 97.921875 367.601562 96.28125 367.601562 C 93.601562 367.601562 91.800781 366.519531 90.800781 364.28125 C 89.839844 362.199219 89.839844 361.640625 90.640625 359.601562 C 91.960938 356.320312 96.078125 354.960938 99.121094 356.800781 Z M 326.71875 395.199219 C 328.078125 396.039062 329.601562 398.679688 329.601562 400.199219 C 329.601562 401.71875 328.078125 404.359375 326.71875 405.199219 C 323.839844 406.960938 319.800781 405.800781 318.320312 402.800781 C 315.679688 397.601562 321.71875 392.160156 326.71875 395.199219 Z M 229.199219 413.121094 C 233.480469 415.238281 233.480469 421.398438 229.199219 423.640625 C 225.359375 425.679688 220.800781 422.839844 220.800781 418.398438 C 220.800781 415.160156 223.480469 412.398438 226.601562 412.398438 C 227.28125 412.398438 228.441406 412.71875 229.199219 413.121094 Z M 94.398438 413.960938 C 98.679688 416.199219 98.679688 422.359375 94.398438 424.480469 C 90.480469 426.480469 86 423.640625 86 419.199219 C 86 416.039062 88.71875 413.199219 91.800781 413.199219 C 92.480469 413.199219 93.640625 413.519531 94.398438 413.960938 Z M 113.078125 413.960938 C 117.28125 415.878906 117.441406 421.960938 113.359375 424.28125 C 110.878906 425.71875 108.480469 425.359375 106.28125 423.28125 C 103.320312 420.441406 104.480469 415.199219 108.398438 413.640625 C 109.921875 413.039062 111.238281 413.121094 113.078125 413.960938 Z M 133.160156 414.28125 C 135.039062 415.71875 135.800781 417.121094 135.800781 419.199219 C 135.800781 422.199219 133.601562 424.679688 130.519531 425.078125 C 127.320312 425.519531 124 422.480469 124 419.160156 C 124 414.71875 129.679688 411.71875 133.160156 414.28125 Z M 150.800781 413.960938 C 155.078125 416.199219 155.078125 422.199219 150.800781 424.441406 C 146.960938 426.519531 142.398438 423.679688 142.398438 419.199219 C 142.398438 414.71875 146.960938 411.878906 150.800781 413.960938 Z M 208.398438 413.921875 C 210.398438 414.921875 211.601562 416.921875 211.601562 419.199219 C 211.601562 421.480469 210.398438 423.480469 208.398438 424.480469 C 204.480469 426.480469 200 423.640625 200 419.199219 C 200 414.800781 204.519531 411.960938 208.398438 413.921875 Z M 74 433.679688 C 80.320312 436.960938 76.28125 446.679688 69.519531 444.441406 C 63.199219 442.359375 64.71875 433.121094 71.398438 432.839844 C 71.878906 432.800781 73.039062 433.199219 74 433.679688 Z M 94.28125 433.601562 C 98.679688 435.558594 98.761719 441.921875 94.398438 444.078125 C 90.519531 446.039062 86 443.238281 86 438.921875 C 86 436.800781 86.800781 435.160156 88.28125 434.078125 C 90.320312 432.640625 91.960938 432.519531 94.28125 433.601562 Z M 113.078125 433.640625 C 119.160156 436.601562 116.039062 445.878906 109.398438 444.640625 C 104.839844 443.761719 103 437.839844 106.320312 434.679688 C 108.359375 432.71875 110.519531 432.398438 113.078125 433.640625 Z M 133.160156 433.878906 C 135.839844 435.921875 136.601562 438.558594 135.238281 441.320312 C 133.121094 445.679688 127.28125 445.921875 124.921875 441.761719 C 123.800781 439.800781 123.761719 438.320312 124.839844 436.160156 C 126.320312 433.039062 130.480469 431.921875 133.160156 433.878906 Z M 151.078125 452.441406 C 153.960938 453.519531 155.601562 456.640625 154.800781 459.558594 C 154.28125 461.480469 152.160156 463.480469 150.199219 463.839844 C 148.238281 464.199219 145.441406 463.078125 144.320312 461.480469 C 143.039062 459.71875 143.039062 456.320312 144.28125 454.558594 C 145.839844 452.359375 148.601562 451.480469 151.078125 452.441406 Z M 151.078125 452.441406 "/>
<path style=" stroke:none;fill-rule:nonzero;fill:rgb(0%,0%,0%);fill-opacity:1;" d="M 247.199219 55.480469 L 247.199219 109 L 260.398438 122.199219 L 260.398438 136.199219 L 248.398438 148.199219 L 248.398438 156.398438 L 291.800781 156.398438 L 295.519531 160.121094 L 299.199219 163.800781 L 299.199219 194.800781 L 314 194.800781 L 314 171 L 335 150 L 346.199219 150 L 366.199219 170 L 383.121094 170 C 399.761719 170 400.039062 170 399.601562 169.238281 C 399.28125 168.640625 399.398438 167.960938 400 166.441406 L 400.800781 164.398438 L 373.800781 164.398438 L 367.199219 157.800781 C 363.558594 154.160156 360.359375 151.199219 360.078125 151.199219 C 359.761719 151.199219 358.921875 150.601562 358.199219 149.878906 C 355.960938 147.640625 355.878906 145.441406 357.921875 143.160156 C 359.921875 140.921875 363.761719 141.238281 365.441406 143.800781 C 366.160156 144.921875 366.28125 147.558594 365.640625 148.71875 C 365.320312 149.359375 366 150.238281 370.519531 154.71875 L 375.800781 160 L 388.878906 160 C 396.839844 160 402.039062 159.839844 402.199219 159.601562 C 402.320312 159.398438 402.679688 157.640625 402.960938 155.71875 C 403.558594 151.601562 403.320312 151 401.359375 151.398438 C 399.800781 151.679688 397.761719 150.921875 396.601562 149.601562 C 395.398438 148.238281 395.480469 144.800781 396.761719 143.441406 C 398.121094 142 400.078125 141.398438 401.679688 141.960938 C 402.359375 142.199219 402.960938 142.398438 403 142.398438 C 403.160156 142.398438 402.441406 138.398438 402.199219 138 C 402.078125 137.761719 400.160156 137.601562 397.878906 137.601562 L 393.800781 137.601562 L 389.878906 141.519531 C 386.320312 145.078125 386 145.558594 386 146.960938 C 386 148.160156 385.71875 148.761719 384.640625 149.839844 C 383.480469 151 383 151.199219 381.441406 151.199219 C 378.078125 151.199219 375.558594 147.800781 376.800781 144.839844 C 377.960938 141.960938 381.199219 140.800781 383.71875 142.320312 L 385.121094 143.121094 L 388.839844 139.359375 L 392.601562 135.601562 L 402 135.601562 L 401.761719 134.480469 C 401.640625 133.878906 401.480469 133.199219 401.398438 132.960938 C 401.320312 132.71875 400.640625 132.398438 399.839844 132.238281 C 396.921875 131.679688 395.078125 128.921875 395.800781 126.121094 C 395.921875 125.519531 396.679688 124.441406 397.441406 123.71875 C 398.640625 122.601562 398.839844 122.199219 398.601562 121.199219 L 398.320312 120 L 392.199219 120 L 389.078125 123.121094 C 386.359375 125.839844 386 126.398438 386 127.679688 C 386 130.398438 383.039062 132.640625 380.238281 132.121094 C 378.71875 131.800781 376.878906 129.839844 376.558594 128.121094 C 376.199219 126.160156 377.320312 124.078125 379.28125 123 C 380.558594 122.320312 380.960938 122.28125 382.480469 122.679688 L 384.199219 123.160156 L 387.398438 119.960938 L 390.601562 116.800781 L 393.921875 116.800781 C 397.800781 116.800781 397.679688 117.640625 394.921875 110.078125 L 393.121094 105.199219 L 388.601562 105.199219 L 377.761719 116.078125 C 368.761719 125.160156 366.839844 127.28125 366.480469 128.640625 C 365.398438 132.441406 361.078125 133.800781 358.398438 131.160156 C 356.160156 128.921875 356.558594 125.238281 359.28125 123.601562 C 360.839844 122.640625 362.199219 122.601562 363.761719 123.441406 L 364.960938 124.039062 L 387.398438 101.601562 L 391.601562 101.601562 L 388.519531 95.441406 L 385.441406 89.28125 L 384.761719 90.800781 C 383.558594 93.480469 380.320312 94.398438 377.71875 92.800781 C 375.921875 91.71875 375.480469 90.640625 375.71875 88.199219 L 375.921875 86.121094 L 372.160156 82.359375 L 368.398438 78.601562 L 368.398438 71.398438 L 368.359375 64.199219 L 366.398438 62 L 364.441406 59.800781 L 364.398438 67.199219 L 364.398438 74.601562 L 354.800781 84.199219 L 354.800781 98.558594 L 340.921875 112.441406 C 327.121094 126.238281 327.039062 126.359375 327.121094 127.878906 C 327.480469 132.441406 321.601562 134.71875 318.640625 131.160156 C 317.039062 129.28125 317.199219 126.839844 318.960938 124.878906 C 320.28125 123.480469 320.480469 123.398438 322.761719 123.398438 L 325.199219 123.398438 L 351.199219 97.398438 L 351.199219 83 L 361.199219 73 L 361.199219 56.160156 L 357.199219 52.238281 L 357.199219 72.199219 L 351.199219 78.199219 C 345.558594 83.839844 345.199219 84.28125 345.199219 85.71875 C 345.199219 86.679688 345.480469 87.558594 346 88.078125 C 349.441406 91.800781 344.640625 97.800781 340.078125 95.441406 C 336.71875 93.679688 336.878906 88.238281 340.359375 86.800781 C 341.480469 86.359375 341.601562 86.121094 341.601562 84.640625 C 341.601562 83.039062 341.800781 82.800781 347.800781 76.800781 L 354 70.601562 L 354 49.320312 L 353 48.398438 L 352 47.480469 L 352 63.039062 L 349.039062 65.960938 C 346.238281 68.761719 346.078125 68.960938 346.480469 70.078125 C 347.878906 74.078125 343.441406 77.800781 339.601562 75.800781 C 337.921875 74.921875 337.199219 73.679688 337.199219 71.601562 C 337.199219 68.71875 339.160156 66.800781 342.078125 66.800781 C 343.199219 66.800781 343.839844 66.359375 345.921875 64.28125 L 348.398438 61.761719 L 348.398438 44.199219 L 345.078125 41.558594 C 340.71875 38.039062 336.238281 34.800781 335.71875 34.800781 C 335.519531 34.800781 334.960938 35.199219 334.480469 35.71875 L 333.601562 36.640625 L 333.601562 81 L 330.121094 84.480469 C 326.839844 87.800781 326.679688 88 327.121094 89 C 328.199219 91.320312 327.359375 94.078125 325.199219 95.359375 C 322.121094 97.160156 318 94.761719 318 91.199219 C 318 88.640625 320.078125 86.398438 322.480469 86.398438 C 323.121094 86.398438 324.519531 85.28125 326.921875 82.878906 L 330.398438 79.398438 L 330.398438 35.039062 L 331.640625 33.761719 L 332.839844 32.519531 L 330.878906 31.238281 C 329.800781 30.558594 328.761719 30 328.558594 30 C 328.359375 30 327.039062 31.121094 325.679688 32.519531 L 323.199219 35.039062 L 323.199219 66.601562 L 324.519531 67.320312 C 329 69.761719 327.441406 76.398438 322.398438 76.398438 C 319.679688 76.398438 317.601562 74.28125 317.601562 71.519531 C 317.601562 70.160156 318.878906 67.601562 319.601562 67.601562 C 319.878906 67.601562 320 61.800781 320 50.480469 L 320 33.359375 L 322.601562 30.800781 C 324.039062 29.398438 325.199219 28.121094 325.199219 28 C 325.199219 27.878906 324.199219 27.199219 322.960938 26.441406 L 320.71875 25.078125 L 314.398438 31.398438 L 314.398438 99.359375 L 317.238281 102.238281 C 320.039062 105.078125 320.199219 105.160156 322.039062 105.121094 C 325.320312 105.039062 327.480469 107.359375 327.078125 110.519531 C 326.519531 114.679688 321.601562 116.121094 318.800781 112.921875 C 317.640625 111.640625 317.519531 111.28125 317.679688 109.558594 L 317.878906 107.679688 L 310.800781 100.601562 L 310.800781 30.199219 L 314 27 C 315.761719 25.238281 317.199219 23.679688 317.199219 23.480469 C 317.199219 23.28125 315.359375 22.28125 313.121094 21.199219 L 309 19.238281 L 306.921875 21.320312 L 304.800781 23.359375 L 304.800781 66.679688 L 305.800781 67.601562 C 307.800781 69.480469 307.398438 73.398438 305.039062 74.839844 C 304.320312 75.28125 303.078125 75.601562 302.078125 75.601562 C 300.601562 75.601562 300.078125 75.359375 298.960938 74.238281 C 297.839844 73.121094 297.601562 72.601562 297.601562 71.160156 C 297.601562 69 298.800781 66.921875 300.199219 66.558594 L 301.199219 66.320312 L 301.199219 22.238281 L 303.441406 19.960938 L 305.679688 17.71875 L 302.199219 16.238281 C 300.28125 15.441406 298.519531 14.800781 298.238281 14.800781 C 298 14.800781 296.839844 15.761719 295.679688 16.921875 L 293.601562 19.039062 L 293.601562 73.800781 L 299.839844 80 C 307.441406 87.558594 308.640625 89.640625 307 92.800781 C 305.441406 95.800781 300.601562 95.960938 298.640625 93.121094 C 297.359375 91.28125 298.160156 87.359375 300.039062 86.359375 C 300.839844 85.960938 300.601562 85.601562 295.640625 80.640625 L 290.398438 75.398438 L 290.398438 17.441406 L 292.441406 15.359375 L 294.480469 13.28125 L 292.160156 12.398438 C 290.878906 11.921875 289.320312 11.441406 288.71875 11.320312 L 287.601562 11.078125 L 287.601562 77.398438 L 291 81 L 294.359375 84.601562 L 294.398438 92.480469 L 294.398438 100.320312 L 297.960938 102.359375 C 299.878906 103.480469 301.960938 104.398438 302.558594 104.398438 C 305.28125 104.398438 307.519531 107.121094 307.039062 109.921875 C 306.558594 113 302.839844 114.878906 300.078125 113.441406 C 298.28125 112.519531 297.441406 110.71875 297.71875 108.199219 L 297.921875 106.160156 L 294.558594 104.238281 L 291.199219 102.320312 L 291.199219 85.878906 L 287.800781 82.441406 L 284.398438 78.960938 L 284.398438 10 L 283.320312 9.558594 C 282.679688 9.320312 281.71875 9.039062 281.121094 8.921875 L 280 8.679688 L 280 77.71875 L 282.601562 82.199219 L 285.199219 86.679688 L 285.199219 106.640625 L 293.71875 115.121094 C 299.71875 121.078125 302.519531 123.601562 303.121094 123.601562 C 305.121094 123.601562 307.199219 125.960938 307.199219 128.199219 C 307.199219 130.558594 304.679688 133.199219 302.480469 133.199219 C 300.960938 133.199219 298.800781 132 298.199219 130.761719 C 297.398438 129.28125 297.441406 126.800781 298.238281 125.679688 C 298.839844 124.800781 298.640625 124.601562 290.441406 116.480469 L 282 108.199219 L 282 87.878906 L 279.398438 83.359375 L 276.800781 78.839844 L 276.800781 43.199219 C 276.800781 7.878906 276.800781 7.601562 276 7.601562 C 275.199219 7.601562 275.199219 7.878906 275.199219 54.320312 L 275.199219 101.039062 L 272.199219 104 C 269.238281 106.960938 269.199219 107 269.199219 109.039062 C 269.199219 110.761719 269 111.320312 268.078125 112.320312 C 264.238281 116.398438 257.839844 112.078125 260.199219 107.039062 C 261.078125 105.199219 262.71875 104.320312 265.039062 104.441406 C 266.71875 104.558594 266.921875 104.441406 269.398438 102 L 272 99.441406 L 272 6.480469 L 270.238281 6.039062 C 269.238281 5.800781 268.359375 5.601562 268.238281 5.601562 C 268.121094 5.601562 268 19.601562 268 36.679688 C 268.039062 63.398438 268.121094 67.921875 268.601562 68.558594 C 268.921875 69 269.199219 70.160156 269.199219 71.121094 C 269.199219 72.601562 268.960938 73.121094 267.839844 74.238281 C 266.71875 75.359375 266.160156 75.601562 264.839844 75.601562 C 260.601562 75.601562 258.320312 71.921875 260.398438 68.480469 C 261.199219 67.199219 261.199219 66.441406 261.199219 35.640625 L 261.199219 4.121094 L 259.71875 3.839844 C 258.878906 3.71875 257.800781 3.601562 257.320312 3.601562 L 256.398438 3.601562 L 256.398438 78.601562 L 259.921875 82.121094 C 262.878906 85.078125 263.601562 85.601562 264.71875 85.601562 C 267.640625 85.601562 269.601562 87.601562 269.601562 90.640625 C 269.601562 92.199219 269.398438 92.679688 268.238281 93.839844 C 267.121094 94.960938 266.558594 95.199219 265.199219 95.199219 C 262.039062 95.199219 259.640625 92.679688 260.121094 89.800781 C 260.320312 88.601562 260.039062 88.238281 256.160156 84.359375 L 252 80.199219 L 252 41.519531 C 252 20.238281 251.878906 2.761719 251.71875 2.679688 C 251.519531 2.558594 250.441406 2.359375 249.320312 2.199219 L 247.199219 1.921875 Z M 268.039062 142.519531 C 271.921875 145.121094 270.078125 151.199219 265.359375 151.199219 C 263.921875 151.199219 263.320312 150.960938 262.160156 149.878906 C 260.238281 148.160156 259.921875 146 261.28125 144 C 263 141.480469 265.640625 140.878906 268.039062 142.519531 Z M 287.558594 142.160156 C 289.199219 143.039062 290 144.519531 290 146.640625 C 290 148.199219 289.800781 148.679688 288.640625 149.839844 C 287.519531 150.960938 286.960938 151.199219 285.640625 151.199219 C 282.238281 151.199219 280.121094 148.960938 280.519531 145.878906 C 280.960938 142.519531 284.558594 140.640625 287.558594 142.160156 Z M 306.160156 142.160156 C 308.320312 143.039062 309.320312 144.679688 309.078125 146.921875 C 308.679688 151.441406 303.558594 153.039062 300.601562 149.558594 C 298.601562 147.160156 299.601562 143.480469 302.558594 142.160156 C 304.160156 141.480469 304.519531 141.480469 306.160156 142.160156 Z M 326.800781 142.199219 C 329 143.320312 329.960938 147.121094 328.558594 149.121094 C 327.761719 150.28125 325.921875 151.199219 324.398438 151.199219 C 320.398438 151.199219 318.121094 146.601562 320.679688 143.601562 C 322.359375 141.558594 324.601562 141.078125 326.800781 142.199219 Z M 326.800781 142.199219 "/>
<path style=" stroke:none;fill-rule:nonzero;fill:rgb(0%,0%,0%);fill-opacity:1;" d="M 372 73.199219 L 372 77.398438 L 375.359375 80.761719 C 378.519531 83.921875 378.800781 84.078125 380.558594 84.160156 C 381.558594 84.199219 382.398438 84.160156 382.398438 84.039062 C 382.398438 83.71875 374.160156 71.558594 373.039062 70.199219 L 372.039062 69 Z M 372 73.199219 "/>
<path style=" stroke:none;fill-rule:nonzero;fill:rgb(0%,0%,0%);fill-opacity:1;" d="M 455.398438 271.238281 L 447 279.71875 L 450.960938 277.640625 C 456.921875 274.480469 459.199219 272.761719 461.71875 269.480469 C 463 267.800781 464.28125 264.199219 463.921875 263.199219 C 463.878906 263 460 266.601562 455.398438 271.238281 Z M 455.398438 271.238281 "/>
<path style=" stroke:none;fill-rule:nonzero;fill:rgb(0%,0%,0%);fill-opacity:1;" d="M 355.480469 358.71875 L 353.601562 360.640625 L 353.601562 373.398438 L 338.800781 388.199219 L 338.800781 444.640625 L 340.320312 446.121094 C 341.640625 447.441406 342.078125 447.601562 343.800781 447.601562 L 345.761719 447.601562 L 343.28125 445.078125 L 340.800781 442.558594 L 340.800781 398.199219 L 345.039062 393.960938 L 349.28125 389.679688 L 348.800781 388.199219 C 348.121094 386.078125 348.519531 383.761719 349.839844 382.359375 C 352.199219 379.878906 355.28125 380 357.601562 382.640625 C 359.921875 385.28125 358.921875 389.519531 355.601562 391 C 354.320312 391.601562 353.71875 391.640625 352.640625 391.320312 C 351.28125 390.921875 351.28125 390.921875 347.039062 395.160156 L 342.800781 399.398438 L 342.800781 441.398438 L 345.921875 444.519531 L 349 447.601562 L 354.199219 447.601562 L 350.480469 443.878906 L 346.800781 440.199219 L 346.800781 403.398438 L 373.800781 376.398438 L 396.921875 376.398438 C 409.601562 376.398438 420 376.28125 420 376.078125 C 420 375.921875 420.121094 375.398438 420.238281 374.878906 L 420.480469 374 L 371.441406 374 L 368.761719 371.359375 L 366.078125 368.679688 L 364.320312 369.558594 C 362.238281 370.558594 361.640625 370.601562 359.800781 369.839844 C 358 369.078125 356.800781 367.078125 356.800781 364.878906 C 356.800781 362.601562 357.800781 360.960938 359.800781 360 C 363.398438 358.28125 367.199219 360.921875 367.199219 365.160156 C 367.199219 366.558594 367.480469 367.078125 369.640625 369.398438 L 372.078125 372 L 420.71875 372 L 421.121094 370.878906 C 421.320312 370.28125 421.640625 369.480469 421.800781 369.078125 C 422.078125 368.441406 420.800781 368.398438 398.160156 368.398438 L 374.238281 368.398438 L 370.800781 365.039062 L 370.800781 358.878906 L 369.039062 357.839844 C 367.398438 356.878906 366.921875 356.800781 362.320312 356.800781 L 357.359375 356.800781 Z M 355.480469 358.71875 "/>
<path style=" stroke:none;fill-rule:nonzero;fill:rgb(0%,0%,0%);fill-opacity:1;" d="M 361.71875 391.320312 L 348.800781 404.238281 L 348.800781 439 L 353.121094 443.320312 L 357.398438 447.601562 L 362.800781 447.601562 L 362.800781 428.441406 L 364.199219 426.039062 L 365.601562 423.679688 L 365.601562 399.398438 L 379 386 L 422.480469 386 L 422.238281 385.078125 C 422.121094 384.601562 422 384.078125 422 383.878906 C 422 383.71875 412.039062 383.601562 399.878906 383.601562 L 377.800781 383.601562 L 368.078125 393.320312 L 358.398438 403 L 358.398438 413.839844 L 359.839844 414.519531 C 362.640625 415.878906 363.519531 420.078125 361.558594 422.558594 C 358.601562 426.359375 353.199219 424.921875 352.199219 420.121094 C 351.800781 418.160156 353.199219 415.398438 354.960938 414.519531 L 356.398438 413.839844 L 356.398438 402.199219 L 366.921875 391.679688 L 377.398438 381.199219 L 399.121094 381.199219 C 422.601562 381.199219 421.519531 381.320312 420.398438 379.160156 C 420 378.441406 419.320312 378.398438 397.28125 378.398438 L 374.601562 378.398438 Z M 361.71875 391.320312 "/>
<path style=" stroke:none;fill-rule:nonzero;fill:rgb(0%,0%,0%);fill-opacity:1;" d="M 373.679688 394.519531 L 367.601562 400.601562 L 367.601562 424.519531 L 366.199219 427.039062 L 364.800781 429.558594 L 364.878906 438.480469 L 365 447.398438 L 367.398438 447.398438 L 367.519531 437.761719 L 367.601562 428.160156 L 369.398438 426.398438 L 371.199219 424.640625 L 371.199219 418.800781 L 371.238281 413 L 374.199219 411.28125 L 377.199219 409.601562 L 412.160156 409.601562 L 414.800781 412.199219 C 417.320312 414.71875 417.441406 414.800781 418.761719 414.398438 C 420.960938 413.800781 423.398438 415.078125 424.441406 417.398438 C 425.480469 419.71875 425.121094 421.71875 423.398438 423.480469 C 421.71875 425.160156 419.71875 425.519531 417.761719 424.558594 C 414.921875 423.160156 413.71875 420.078125 414.960938 417.558594 L 415.601562 416.238281 L 413.320312 413.921875 L 411.039062 411.601562 L 378.320312 411.601562 L 375.761719 413.039062 L 373.199219 414.480469 L 373.199219 425.839844 L 371.398438 427.601562 L 369.601562 429.398438 L 369.679688 438.398438 C 369.800781 448.640625 369.519531 447.921875 373.519531 447.398438 L 375.679688 447.121094 L 372.398438 443.761719 L 372.398438 431.398438 L 376.039062 427.761719 L 379.679688 424.121094 L 378.839844 422.761719 C 377.839844 421.121094 377.761719 418.480469 378.601562 416.800781 C 379.839844 414.441406 383.800781 413.519531 385.921875 415.078125 C 390.160156 418.160156 388.480469 424.398438 383.28125 425.078125 C 381.921875 425.28125 381.160156 425.839844 378.199219 428.800781 L 374.71875 432.320312 L 374.761719 437.640625 L 374.839844 443 L 376.921875 445.078125 L 378.960938 447.199219 L 386.960938 447.199219 L 385.601562 445.800781 C 384.679688 444.839844 383.878906 444.398438 383.121094 444.398438 C 381.601562 444.398438 379.878906 443.480469 378.839844 442.160156 C 378.199219 441.359375 378 440.519531 378 438.878906 C 378 436.878906 378.121094 436.558594 379.558594 435.160156 C 380.878906 433.839844 381.359375 433.601562 382.839844 433.601562 C 387.441406 433.601562 389.921875 438.558594 387.28125 442.320312 L 386.441406 443.480469 L 388.320312 445.320312 C 390.121094 447.121094 390.320312 447.199219 392.480469 447.199219 C 393.71875 447.199219 394.839844 447.039062 394.960938 446.878906 C 395.078125 446.679688 394.078125 445.480469 392.800781 444.199219 L 390.398438 441.839844 L 390.398438 426.960938 L 393.398438 424.761719 L 396.359375 422.601562 L 396.121094 420.558594 C 395.480469 414.960938 401.519531 412.039062 405.160156 416.238281 C 406.160156 417.359375 406.398438 418 406.398438 419.441406 C 406.398438 420.441406 406.121094 421.761719 405.839844 422.359375 C 404.640625 424.601562 401.800781 425.640625 399.441406 424.640625 L 397.960938 424.039062 L 395.199219 426.121094 L 392.398438 428.199219 L 392.640625 434.601562 L 392.878906 441 L 395.519531 443.679688 L 398.199219 446.320312 L 401.398438 445.238281 C 403.160156 444.640625 405.679688 443.679688 406.960938 443.078125 L 409.320312 442 L 408.398438 441 C 407.160156 439.679688 406.679688 439.71875 405.878906 441.398438 C 404.601562 444.039062 401.359375 445.121094 398.761719 443.800781 C 395.078125 441.878906 395.160156 436.078125 398.839844 434.160156 C 401.519531 432.800781 405.519531 434.359375 406.160156 437.039062 C 406.359375 437.761719 406.679688 438 407.480469 438 C 408.160156 438 409.078125 438.519531 410 439.398438 L 411.441406 440.800781 L 412.921875 439.800781 C 413.71875 439.238281 414.398438 438.558594 414.398438 438.359375 C 414.398438 438.121094 414.71875 437.28125 415.078125 436.519531 C 415.839844 434.921875 417.71875 433.601562 419.28125 433.601562 C 420.519531 433.601562 422.601562 431.398438 425.601562 426.921875 C 427.839844 423.558594 429.199219 420.238281 429.480469 417.28125 L 429.71875 415.121094 L 423.160156 408.558594 L 416.601562 402 L 411 402 L 405.398438 402.039062 L 404.71875 403.519531 C 404.320312 404.359375 403.441406 405.359375 402.761719 405.761719 C 401.160156 406.71875 398.558594 406.679688 397.238281 405.679688 C 395.921875 404.761719 394.800781 402.558594 394.800781 401 C 394.800781 398.601562 397.640625 395.601562 399.921875 395.601562 C 401.601562 395.601562 403.601562 396.71875 404.441406 398.199219 L 405.28125 399.601562 L 417.398438 399.601562 L 423.519531 405.679688 L 429.679688 411.800781 L 429.398438 409.398438 C 429.039062 406.359375 428 402.160156 426.121094 396.480469 L 424.679688 392 L 391.800781 392 L 388.640625 395.160156 C 385.761719 398.078125 385.558594 398.359375 386 399.199219 C 386.28125 399.761719 386.398438 400.960938 386.28125 402.121094 C 386.121094 403.800781 385.878906 404.359375 384.640625 405.480469 C 383.441406 406.601562 382.921875 406.800781 381.199219 406.800781 C 379.480469 406.800781 378.960938 406.601562 377.71875 405.480469 C 376.480469 404.320312 376.238281 403.839844 376.121094 401.960938 C 375.960938 400.160156 376.078125 399.558594 376.878906 398.398438 C 378.121094 396.558594 380.640625 395.601562 382.480469 396.320312 C 383.800781 396.800781 383.800781 396.800781 387.199219 393.398438 L 390.601562 390 L 407.121094 390 C 423.320312 390 423.601562 390 423.601562 389.199219 C 423.601562 388.398438 423.320312 388.398438 401.679688 388.398438 L 379.800781 388.398438 Z M 373.679688 394.519531 "/>
<path style=" stroke:none;fill-rule:nonzero;fill:rgb(0%,0%,0%);fill-opacity:1;" d="M 57.121094 474.398438 C 57 475.039062 57.078125 475.601562 57.28125 475.601562 C 57.441406 475.601562 57.601562 475.039062 57.601562 474.398438 C 57.601562 473.71875 57.519531 473.199219 57.441406 473.199219 C 57.359375 473.199219 57.199219 473.71875 57.121094 474.398438 Z M 57.121094 474.398438 "/>
<path style=" stroke:none;fill-rule:nonzero;fill:rgb(0%,0%,0%);fill-opacity:1;" d="M 52 501.679688 C 51.039062 506.359375 50.199219 510.601562 50.078125 511.078125 L 49.921875 512 L 74.839844 511.960938 L 99.800781 511.960938 L 93.199219 509.640625 C 80.28125 505.078125 70.601562 501.121094 59.441406 495.839844 C 56.398438 494.398438 53.839844 493.199219 53.800781 493.199219 C 53.761719 493.199219 52.960938 497.039062 52 501.679688 Z M 52 501.679688 "/>
</g>
</svg>
